<svg width="600" height="600" viewBox="0 0 600 600" fill="none" xmlns="http://www.w3.org/2000/svg">
<g clip-path="url(#clip0_1393_1579)">
<path d="M134 207.841L154.588 221.959C174.86 219.438 185.344 216.418 206.941 209.018C203.767 207.253 198.995 204.512 195.765 202.448C191.851 199.947 188.155 197.363 182.824 193.724L134 207.841Z" fill="#4A9A94"/>
<path d="M154.588 291.371V221.959L134 207.841V274.312L138.868 278.345L154.588 291.371Z" fill="#4A9A94"/>
<path d="M154.588 221.959V291.371C163.438 291.371 188.313 287.672 201.052 281.993C203.555 280.877 205.589 279.685 206.941 278.429V209.018C185.344 216.418 174.86 219.438 154.588 221.959Z" fill="#4A9A94"/>
<path d="M195.765 202.448C198.995 204.512 203.767 207.253 206.941 209.018C222.95 218.623 252.474 225.383 285.176 228.261C312.621 230.676 342.304 230.357 368.118 226.69C390.661 223.488 410.253 217.734 422.824 209.018C422.674 202.65 418.055 197.218 406.187 191.359C400.18 188.394 392.317 185.319 382.235 181.959C370.471 202.448 274.588 210.779 252.824 178.429C224.992 184.112 212.91 190.569 195.765 202.448Z" fill="#4A9A94"/>
<path d="M285.176 228.261C252.474 225.383 222.95 218.623 206.941 209.018C206.941 253.967 228.156 283.125 259.882 298.093C270.422 303.065 282.121 306.472 294.588 308.372C287.846 282.57 286.072 264.528 285.176 228.261Z" fill="#4A9A94"/>
<path d="M294.588 308.372C302.545 309.584 310.814 310.183 319.294 310.183C334.651 310.183 348.394 307.928 360.471 303.545C368.898 273.857 368.513 256.91 368.118 226.69C342.304 230.357 312.621 230.676 285.176 228.261C286.072 264.528 287.846 282.57 294.588 308.372Z" fill="#9A2D4C"/>
<path d="M360.471 303.545C365.463 301.734 370.17 299.558 374.588 297.028C384.549 291.325 393.043 283.82 400.027 274.615C401.743 272.354 403.367 269.991 404.9 267.527C414.596 251.938 420.624 232.306 422.824 209.018C410.253 217.734 390.661 223.488 368.118 226.69C368.513 256.91 368.898 273.857 360.471 303.545Z" fill="#4A9A94"/>
<path d="M466.941 207.241C453.002 206.319 444.813 205.129 429.294 201.359C425.043 231 422.159 247.202 416.353 275.477L453.688 280.347L456.941 280.771C462.231 255.425 464.794 240.236 466.941 207.241Z" fill="#4A9A94"/>
<path d="M408.118 187.83L429.294 201.359C444.813 205.129 453.002 206.319 466.941 207.241C461.647 201.359 456.073 198.06 444.588 192.536L408.118 187.83Z" fill="#4A9A94"/>
<path d="M406.187 191.359C418.055 197.218 422.674 202.65 422.824 209.018C420.624 232.306 414.596 251.938 404.9 267.527L416.353 275.477C422.159 247.202 425.043 231 429.294 201.359L408.118 187.83L406.187 191.359Z" fill="#4A9A94"/>
<path d="M138.706 281.359C138.706 287.583 140.755 293.356 144.252 298.109C149.881 305.761 159.262 310.771 169.882 310.771C182.046 310.771 192.582 304.2 197.72 294.615C199.761 290.809 200.95 286.527 201.052 281.993C188.313 287.672 163.438 291.371 154.588 291.371L138.868 278.345C138.761 279.336 138.706 280.341 138.706 281.359Z" fill="#E0E0E0"/>
<path d="M197.72 294.615C192.582 304.2 182.046 310.771 169.882 310.771C159.262 310.771 149.881 305.761 144.252 298.109C144.916 328.705 147.832 344.574 162.824 367.83C183.619 372.727 194.352 372.556 209.294 359.006C209.769 327.547 208.418 311.929 197.72 294.615Z" fill="#9A2D4C"/>
<path d="M259.882 324.3C254.514 326.186 251.436 329.754 250.56 334.21C247.885 347.819 265.752 369.708 301.647 377.241C299.6 360.791 298.734 351.409 298.706 333.812C282.058 332.532 267.241 329.411 259.882 324.3Z" fill="#4A9A94"/>
<path d="M301.647 377.241C302.526 377.426 303.385 377.603 304.226 377.773C321.631 381.296 331.035 381.714 342.007 377.899C344.335 377.09 346.734 376.09 349.294 374.889C353.475 358.424 354.756 348.894 354.588 331.205C339.179 334.334 317.745 335.277 298.706 333.812C298.734 351.409 299.6 360.791 301.647 377.241Z" fill="#9A2D4C"/>
<path d="M349.294 374.889C360.57 369.599 377.431 352.435 379.172 337.199C379.78 331.88 378.545 326.797 374.588 322.536C371.887 326.287 364.479 329.196 354.588 331.205C354.756 348.894 353.475 358.424 349.294 374.889Z" fill="#4A9A94"/>
<path d="M416.353 275.477L404.9 267.527C403.367 269.991 401.743 272.354 400.027 274.615C400.146 275.698 400.336 276.762 400.592 277.801C403.426 289.276 414.411 297.83 427.529 297.83C436.129 297.83 443.812 294.154 448.882 288.389C450.963 286.024 452.604 283.306 453.688 280.347L416.353 275.477Z" fill="#E0E0E0"/>
<path d="M309.8 3.997C310.634 6.6801 309.935 9.28281 308.238 9.8103C306.541 10.3378 304.489 8.59034 303.655 5.90724C302.821 3.22413 303.52 0.621431 305.217 0.093935C306.914 -0.433561 308.966 1.3139 309.8 3.997Z" fill="black"/>
<path fill-rule="evenodd" clip-rule="evenodd" d="M252.824 178.429C274.588 210.779 370.471 202.448 382.235 181.959V144.9C382.235 109.591 362.235 86.6676 319.294 86.6647C276.353 86.6618 252.824 109.594 252.824 144.9V178.429ZM355.176 154.889C355.176 175.68 341.218 192.536 324 192.536C306.782 192.536 292.824 175.68 292.824 154.889C292.824 134.097 306.782 117.241 324 117.241C341.218 117.241 355.176 134.097 355.176 154.889Z" fill="#4A9A94"/>
<path fill-rule="evenodd" clip-rule="evenodd" d="M324 192.536C341.218 192.536 355.176 175.68 355.176 154.889C355.176 134.097 341.218 117.241 324 117.241C306.782 117.241 292.824 134.097 292.824 154.889C292.824 175.68 306.782 192.536 324 192.536ZM330.471 157.241C330.471 159.84 328.627 161.947 326.353 161.947C324.079 161.947 322.235 159.84 322.235 157.241C322.235 154.642 324.079 152.536 326.353 152.536C328.627 152.536 330.471 154.642 330.471 157.241Z" fill="white"/>
<path d="M326.353 161.947C328.627 161.947 330.471 159.84 330.471 157.241C330.471 154.642 328.627 152.536 326.353 152.536C324.079 152.536 322.235 154.642 322.235 157.241C322.235 159.84 324.079 161.947 326.353 161.947Z" fill="black"/>
<path d="M427.529 297.83C414.411 297.83 403.426 289.276 400.592 277.801C401.75 316.517 405.604 331.839 416.353 351.33C431.86 353.918 440.571 352.931 453.412 347.57C454.553 347.094 455.727 346.583 456.941 346.036C459.621 312.905 456.828 302.183 448.882 288.389C443.812 294.154 436.129 297.83 427.529 297.83Z" fill="#9A2D4C"/>
<path d="M242.235 354.272C242.235 357.024 242.644 359.695 243.412 362.243C247.538 375.928 262.039 386.036 279.294 386.036C288.119 386.036 296.224 383.392 302.589 378.977C303.148 378.59 303.694 378.188 304.226 377.773C303.385 377.603 302.526 377.426 301.647 377.241C265.752 369.708 247.885 347.819 250.56 334.21C245.356 339.68 242.235 346.663 242.235 354.272Z" fill="#E0E0E0"/>
<path d="M356.353 381.33C367.759 381.33 377.649 375.357 382.528 366.625C384.597 362.921 385.765 358.722 385.765 354.272C385.765 347.798 383.294 341.855 379.172 337.199C377.431 352.435 360.57 369.599 349.294 374.889C346.734 376.09 344.335 377.09 342.007 377.899C342.764 378.289 343.542 378.649 344.339 378.977C348.007 380.49 352.073 381.33 356.353 381.33Z" fill="#E0E0E0"/>
<path d="M319.294 310.183C310.814 310.183 302.545 309.584 294.588 308.372C282.121 306.472 270.422 303.065 259.882 298.093C259.325 308.976 259.274 314.628 259.882 324.3C267.241 329.411 282.058 332.532 298.706 333.812C317.745 335.277 339.179 334.334 354.588 331.205C364.479 329.196 371.887 326.287 374.588 322.536C375.188 312.766 375.167 307.191 374.588 297.028C370.17 299.558 365.463 301.734 360.471 303.545C348.394 307.928 334.651 310.183 319.294 310.183Z" fill="#E0E0E0"/>
<path d="M302.589 378.977C296.224 383.392 288.119 386.036 279.294 386.036C262.039 386.036 247.538 375.928 243.412 362.243C242.047 385.566 241.546 398.674 242.205 420.925C242.195 420.591 242.215 421.254 242.205 420.925C262.793 432.689 277.811 437.817 301.647 428.389C301.905 424.485 302.122 420.926 302.298 417.545C302.947 405.039 303.033 394.984 302.589 378.977Z" fill="#9A2D4C"/>
<path d="M356.353 381.33C352.073 381.33 348.007 380.49 344.339 378.977C341.336 398.634 342.626 404.069 343.896 420.555C361.047 421.716 371.17 424.407 388.215 419.44C387.753 399.004 387.208 387.653 382.528 366.625C377.649 375.357 367.759 381.33 356.353 381.33Z" fill="#9A2D4C"/>
<path d="M388.215 419.44C371.17 424.407 361.047 421.716 343.896 420.555C342.824 422.752 342.235 425.144 342.235 427.647C342.235 433.374 345.317 438.522 350.218 442.075C354.492 445.173 360.149 447.059 366.353 447.059C374.503 447.059 381.709 443.805 386.074 438.824C388.844 435.664 390.471 431.808 390.471 427.647C390.471 424.714 389.662 421.932 388.215 419.44Z" fill="#E0E0E0"/>
<path d="M378.706 450.588C365.834 450.013 358.392 449.201 344 445.294L347.529 501.176C361.794 506.233 369.43 507.863 382.824 510C381.759 486.639 381.003 473.57 378.706 450.588Z" fill="#4A9A94"/>
<path d="M344 445.294C358.392 449.201 365.834 450.013 378.706 450.588L391.059 438.824H386.074C381.709 443.805 374.503 447.059 366.353 447.059C360.149 447.059 354.492 445.173 350.218 442.075L344 445.294Z" fill="#4A9A94"/>
<path d="M391.059 438.824L378.706 450.588C381.003 473.57 381.759 486.639 382.824 510L395.176 494.706C394.321 472.33 393.407 460.104 391.059 438.824Z" fill="#4A9A94"/>
<path d="M302.235 450.751C298.38 455.499 295.271 459.312 289.294 464.706L291.059 537.647L304 515.294C303.555 490.753 303.934 475.644 302.235 450.751Z" fill="#4A9A94"/>
<path d="M289.294 464.706C269.794 463.301 259.206 461.667 241.059 456.471C240.527 483.778 241.282 498.43 243.412 524.118C262.055 531.898 272.487 534.779 291.059 537.647L289.294 464.706Z" fill="#4A9A94"/>
<path d="M301.647 428.389C277.811 437.817 262.793 432.689 242.205 420.925C242.195 420.591 242.215 421.254 242.205 420.925C241.458 423.626 241.059 426.472 241.059 429.412C241.059 437.626 244.177 445.112 249.294 450.751C255.105 457.155 263.495 461.176 272.824 461.176C283.268 461.176 293.713 457.124 299.294 449.821C303.457 444.374 304.914 437.119 301.647 428.389Z" fill="#E0E0E0"/>
<path d="M272.824 461.176C263.495 461.176 255.105 457.155 249.294 450.751C245.115 453.171 243.746 454.346 241.059 456.471C259.206 461.667 269.794 463.301 289.294 464.706C295.271 459.312 298.38 455.499 302.235 450.751L299.294 449.821C293.713 457.124 283.268 461.176 272.824 461.176Z" fill="#4A9A94"/>
<path d="M304 515.294L291.059 537.647C272.487 534.779 262.055 531.898 243.412 524.118C241.647 523.529 238.933 523.529 236.941 523.529C210.626 523.529 189.294 540.648 189.294 561.765C189.294 582.882 210.626 600 236.941 600C250.016 600 262.45 596.362 271.059 589.519C286.835 575.628 304.59 559.995 308.118 550.588C311.647 541.176 308.473 527.636 304 515.294Z" fill="#9A2D4C"/>
<path d="M382.824 510C369.43 507.863 361.794 506.233 347.529 501.176C344.351 513.248 343.413 525.294 346.353 531.765C349.293 538.235 365.176 547.059 390.471 545.882C405.903 553.2 413.999 554.706 430.471 553.529C446.942 552.353 452.235 541.765 452.235 521.176C452.235 505.258 434.327 492.353 412.235 492.353C405.911 492.353 400.493 492.822 395.176 494.706L382.824 510Z" fill="#9A2D4C"/>
<path d="M209.294 359.006C194.352 372.556 183.619 372.727 162.824 367.83C162.597 398.742 165.869 404.259 174.059 405.882C175.913 408.661 179.686 409.804 188.706 410L189.176 409.983C194.16 409.802 197.091 409.696 202.824 408.235C211.059 406.471 218.706 404.118 218.51 392.353C222.306 390.601 224.211 389.176 226.176 386.297C227.083 384.966 227.141 383.243 226.449 381.788C221.509 371.412 217.28 366.425 209.294 359.006Z" fill="#E0E0E0"/>
<path d="M416.353 351.33C414.707 358.587 414.262 362.591 415.176 369.412C417.796 366.275 419.412 365.826 422.824 369.412C427.54 364.646 429.666 366.63 433.412 370.588C435.958 368.245 437.529 367.647 439.882 367.647C442.235 367.647 445.765 368.824 445.765 374.118C445.765 379.412 445.176 385.294 450.471 388.824C451.806 389.714 453.889 389.856 456.127 389.353C462.76 387.862 470.747 380.706 464.588 370.588C456.518 357.329 456.429 357.051 453.589 348.127L453.412 347.57C440.571 352.931 431.86 353.918 416.353 351.33Z" fill="#E0E0E0"/>
<path d="M445.765 374.118C445.765 368.824 442.235 367.647 439.882 367.647C437.529 367.647 435.958 368.245 433.412 370.588C433.467 380.562 434.95 388.811 437.6 394.118C439.658 398.241 442.421 400.588 445.765 400.588C453.412 400.588 456.127 392.941 456.127 389.353C453.889 389.856 451.806 389.714 450.471 388.824C445.176 385.294 445.765 379.412 445.765 374.118Z" fill="#E0E0E0"/>
<path d="M433.412 370.588C429.666 366.63 427.54 364.646 422.824 369.412C422.14 378.12 422.117 383.379 423.57 391.765C428.118 398.235 432.235 398.824 437.6 394.118C434.95 388.811 433.467 380.562 433.412 370.588Z" fill="#E0E0E0"/>
<path d="M422.824 369.412C419.412 365.826 417.796 366.275 415.176 369.412C414.189 375.737 414.593 380.427 414.996 386.471C418.624 392.195 420.371 391.688 423.57 391.765C422.117 383.379 422.14 378.12 422.824 369.412Z" fill="#E0E0E0"/>
<path d="M415.176 369.412C412.396 367.647 410.885 365.139 407.529 369.412C404.174 373.684 407.147 381.536 414.996 386.471C414.593 380.427 414.189 375.737 415.176 369.412Z" fill="#E0E0E0"/>
<path d="M154.588 221.959V291.371M154.588 221.959L134 207.841M154.588 221.959C174.86 219.438 185.344 216.418 206.941 209.018M154.588 291.371L138.868 278.345M154.588 291.371C163.438 291.371 188.313 287.672 201.052 281.993M134 207.841V274.312L138.868 278.345M134 207.841L182.824 193.724C188.155 197.363 191.851 199.947 195.765 202.448M206.941 209.018V278.429C205.589 279.685 203.555 280.877 201.052 281.993M206.941 209.018C203.767 207.253 198.995 204.512 195.765 202.448M206.941 209.018C222.95 218.623 252.474 225.383 285.176 228.261M206.941 209.018C206.941 253.967 228.156 283.125 259.882 298.093M195.765 202.448C212.91 190.569 224.992 184.112 252.824 178.429M252.824 178.429C274.588 210.779 370.471 202.448 382.235 181.959M252.824 178.429C252.824 178.429 252.824 181.372 252.824 144.9M252.824 178.429V144.9M422.824 209.018C422.674 202.65 418.055 197.218 406.187 191.359M422.824 209.018C410.253 217.734 390.661 223.488 368.118 226.69M422.824 209.018C420.624 232.306 414.596 251.938 404.9 267.527M382.235 181.959C382.235 181.959 382.235 180.209 382.235 144.9M382.235 181.959V144.9M382.235 181.959C392.317 185.319 400.18 188.394 406.187 191.359M252.824 144.9C252.824 109.594 276.353 86.6618 319.294 86.6647M382.235 144.9C382.235 109.591 362.235 86.6676 319.294 86.6647M319.294 86.6647C319.032 50.4519 316.682 37.9483 308.238 9.8103M308.238 9.8103C309.935 9.28281 310.634 6.6801 309.8 3.997C308.966 1.3139 306.914 -0.433561 305.217 0.093935C303.52 0.621431 302.821 3.22413 303.655 5.90724C304.489 8.59034 306.541 10.3378 308.238 9.8103ZM408.118 187.83L406.187 191.359M408.118 187.83L429.294 201.359M408.118 187.83L444.588 192.536C456.073 198.06 461.647 201.359 466.941 207.241M429.294 201.359C444.813 205.129 453.002 206.319 466.941 207.241M429.294 201.359C425.043 231 422.159 247.202 416.353 275.477M466.941 207.241C464.794 240.236 462.231 255.425 456.941 280.771L453.688 280.347M416.353 275.477L404.9 267.527M416.353 275.477L453.688 280.347M404.9 267.527C403.367 269.991 401.743 272.354 400.027 274.615M285.176 228.261C286.072 264.528 287.846 282.57 294.588 308.372M285.176 228.261C312.621 230.676 342.304 230.357 368.118 226.69M294.588 308.372C302.545 309.584 310.814 310.183 319.294 310.183C334.651 310.183 348.394 307.928 360.471 303.545M294.588 308.372C282.121 306.472 270.422 303.065 259.882 298.093M360.471 303.545C368.898 273.857 368.513 256.91 368.118 226.69M360.471 303.545C365.463 301.734 370.17 299.558 374.588 297.028M138.868 278.345C138.761 279.336 138.706 280.341 138.706 281.359C138.706 287.583 140.755 293.356 144.252 298.109M201.052 281.993C200.95 286.527 199.761 290.809 197.72 294.615M197.72 294.615C192.582 304.2 182.046 310.771 169.882 310.771C159.262 310.771 149.881 305.761 144.252 298.109M197.72 294.615C208.418 311.929 209.769 327.547 209.294 359.006M209.294 359.006C194.352 372.556 183.619 372.727 162.824 367.83M209.294 359.006C217.28 366.425 221.509 371.412 226.449 381.788C227.141 383.243 227.083 384.966 226.176 386.297C224.211 389.176 222.306 390.601 218.51 392.353M162.824 367.83C147.832 344.574 144.916 328.705 144.252 298.109M162.824 367.83C162.597 398.742 165.869 404.259 174.059 405.882M259.882 298.093C259.325 308.976 259.274 314.628 259.882 324.3M259.882 324.3C267.241 329.411 282.058 332.532 298.706 333.812M259.882 324.3C254.514 326.186 251.436 329.754 250.56 334.21M374.588 322.536C375.188 312.766 375.167 307.191 374.588 297.028M374.588 322.536C371.887 326.287 364.479 329.196 354.588 331.205M374.588 322.536C378.545 326.797 379.78 331.88 379.172 337.199M374.588 297.028C384.549 291.325 393.043 283.82 400.027 274.615M301.647 377.241C299.6 360.791 298.734 351.409 298.706 333.812M301.647 377.241C265.752 369.708 247.885 347.819 250.56 334.21M301.647 377.241C302.526 377.426 303.385 377.603 304.226 377.773M349.294 374.889C353.475 358.424 354.756 348.894 354.588 331.205M349.294 374.889C346.734 376.09 344.335 377.09 342.007 377.899M349.294 374.889C360.57 369.599 377.431 352.435 379.172 337.199M298.706 333.812C317.745 335.277 339.179 334.334 354.588 331.205M453.688 280.347C452.604 283.306 450.963 286.024 448.882 288.389M400.027 274.615C400.146 275.698 400.336 276.762 400.592 277.801M324 117.241C306.782 117.241 292.824 134.097 292.824 154.889C292.824 175.68 306.782 192.536 324 192.536C341.218 192.536 355.176 175.68 355.176 154.889C355.176 134.097 341.218 117.241 324 117.241ZM324 117.241L326.353 152.536M326.353 152.536C324.079 152.536 322.235 154.642 322.235 157.241C322.235 159.84 324.079 161.947 326.353 161.947C328.627 161.947 330.471 159.84 330.471 157.241C330.471 154.642 328.627 152.536 326.353 152.536ZM400.592 277.801C403.426 289.276 414.411 297.83 427.529 297.83C436.129 297.83 443.812 294.154 448.882 288.389M400.592 277.801C401.75 316.517 405.604 331.839 416.353 351.33M416.353 351.33C414.707 358.587 414.262 362.591 415.176 369.412M416.353 351.33C431.86 353.918 440.571 352.931 453.412 347.57M448.882 288.389C456.828 302.183 459.621 312.905 456.941 346.036C455.727 346.583 454.553 347.094 453.412 347.57M250.56 334.21C245.356 339.68 242.235 346.663 242.235 354.272C242.235 357.024 242.644 359.695 243.412 362.243M304.226 377.773C321.631 381.296 331.035 381.714 342.007 377.899M304.226 377.773C303.694 378.188 303.148 378.59 302.589 378.977M342.007 377.899C342.764 378.289 343.542 378.649 344.339 378.977M379.172 337.199C383.294 341.855 385.765 347.798 385.765 354.272C385.765 358.722 384.597 362.921 382.528 366.625M302.589 378.977C296.224 383.392 288.119 386.036 279.294 386.036C262.039 386.036 247.538 375.928 243.412 362.243M302.589 378.977C303.033 394.984 302.947 405.039 302.298 417.545C302.122 420.926 301.905 424.485 301.647 428.389M301.647 428.389C277.811 437.817 262.793 432.689 242.205 420.925M301.647 428.389C304.914 437.119 303.457 444.374 299.294 449.821M242.205 420.925C241.458 423.626 241.059 426.472 241.059 429.412C241.059 437.626 244.177 445.112 249.294 450.751M242.205 420.925C241.546 398.674 242.047 385.566 243.412 362.243M242.205 420.925C242.215 421.254 242.195 420.591 242.205 420.925ZM344.339 378.977C348.007 380.49 352.073 381.33 356.353 381.33C367.759 381.33 377.649 375.357 382.528 366.625M344.339 378.977C341.336 398.634 342.626 404.069 343.896 420.555M343.896 420.555C361.047 421.716 371.17 424.407 388.215 419.44M343.896 420.555C342.824 422.752 342.235 425.144 342.235 427.647C342.235 433.374 345.317 438.522 350.218 442.075M388.215 419.44C387.753 399.004 387.208 387.653 382.528 366.625M388.215 419.44C389.662 421.932 390.471 424.714 390.471 427.647C390.471 431.808 388.844 435.664 386.074 438.824M249.294 450.751C255.105 457.155 263.495 461.176 272.824 461.176C283.268 461.176 293.713 457.124 299.294 449.821M249.294 450.751C245.115 453.171 243.746 454.346 241.059 456.471M241.059 456.471C259.206 461.667 269.794 463.301 289.294 464.706M241.059 456.471C240.527 483.778 241.282 498.43 243.412 524.118M289.294 464.706C295.271 459.312 298.38 455.499 302.235 450.751M289.294 464.706L291.059 537.647M302.235 450.751L299.294 449.821M302.235 450.751C303.934 475.644 303.555 490.753 304 515.294M304 515.294L291.059 537.647M304 515.294C308.473 527.636 311.647 541.176 308.118 550.588C304.59 559.995 286.835 575.628 271.059 589.519C262.45 596.362 250.016 600 236.941 600C210.626 600 189.294 582.882 189.294 561.765C189.294 540.648 210.626 523.529 236.941 523.529C238.933 523.529 241.647 523.529 243.412 524.118M291.059 537.647C272.487 534.779 262.055 531.898 243.412 524.118M344 445.294C358.392 449.201 365.834 450.013 378.706 450.588M344 445.294L350.218 442.075M344 445.294L347.529 501.176M378.706 450.588L391.059 438.824M378.706 450.588C381.003 473.57 381.759 486.639 382.824 510M391.059 438.824H386.074M391.059 438.824C393.407 460.104 394.321 472.33 395.176 494.706M386.074 438.824C381.709 443.805 374.503 447.059 366.353 447.059C360.149 447.059 354.492 445.173 350.218 442.075M347.529 501.176C361.794 506.233 369.43 507.863 382.824 510M347.529 501.176C344.351 513.248 343.413 525.294 346.353 531.765C349.293 538.235 365.176 547.059 390.471 545.882C405.903 553.2 413.999 554.706 430.471 553.529C446.942 552.353 452.235 541.765 452.235 521.176C452.235 505.258 434.327 492.353 412.235 492.353C405.911 492.353 400.493 492.822 395.176 494.706M382.824 510L395.176 494.706M213.412 391.765C213.163 393.911 213.336 394.905 214 396.471C215.842 394.37 216.353 393.529 218.51 392.353M218.51 392.353C218.706 404.118 211.059 406.471 202.824 408.235M202.824 408.235C201.064 406.316 200.335 404.985 199.294 402.353M202.824 408.235C197.091 409.696 194.16 409.802 189.176 409.983M185.176 405.882C186.297 407.584 186.988 408.519 188.706 410M188.706 410C179.686 409.804 175.913 408.661 174.059 405.882M188.706 410L189.176 409.983M188.706 410C188.865 409.994 189.022 409.989 189.176 409.983M172.824 402.941C173.123 404.079 173.506 405.054 174.059 405.882M415.176 369.412C417.796 366.275 419.412 365.826 422.824 369.412M415.176 369.412C412.396 367.647 410.885 365.139 407.529 369.412C404.174 373.684 407.147 381.536 414.996 386.471M415.176 369.412C414.189 375.737 414.593 380.427 414.996 386.471M453.412 347.57L453.589 348.127M453.412 347.57C453.472 347.76 453.531 347.945 453.589 348.127M433.412 370.588C435.958 368.245 437.529 367.647 439.882 367.647C442.235 367.647 445.765 368.824 445.765 374.118C445.765 379.412 445.176 385.294 450.471 388.824C451.806 389.714 453.889 389.856 456.127 389.353M433.412 370.588C429.666 366.63 427.54 364.646 422.824 369.412M433.412 370.588C433.467 380.562 434.95 388.811 437.6 394.118M456.127 389.353C462.76 387.862 470.747 380.706 464.588 370.588C456.518 357.329 456.429 357.051 453.589 348.127M456.127 389.353C456.127 392.941 453.412 400.588 445.765 400.588C442.421 400.588 439.658 398.241 437.6 394.118M422.824 369.412C422.14 378.12 422.117 383.379 423.57 391.765M414.996 386.471C414.94 385.471 415.058 387.396 414.996 386.471ZM414.996 386.471C418.624 392.195 420.371 391.688 423.57 391.765M423.57 391.765C423.414 390.952 423.701 392.522 423.57 391.765ZM423.57 391.765C428.118 398.235 432.235 398.824 437.6 394.118" stroke="black" stroke-linecap="round" stroke-linejoin="round"/>
</g>
<defs>
<clipPath id="clip0_1393_1579">
<rect width="600" height="600" fill="white"/>
</clipPath>
</defs>
</svg>
