<svg width="600" height="600" viewBox="0 0 600 600" fill="none" xmlns="http://www.w3.org/2000/svg">
<path d="M244.448 263.935C239.046 265.837 235.949 269.435 235.067 273.929C232.375 287.655 250.355 309.732 286.477 317.33C284.417 300.739 283.545 291.276 283.517 273.528C266.764 272.237 251.854 269.089 244.448 263.935Z" fill="#4A9A94"/>
<path d="M286.477 317.33C287.362 317.516 288.226 317.695 289.072 317.867C306.588 321.419 316.051 321.841 327.092 317.993C329.435 317.177 331.849 316.168 334.425 314.957C338.633 298.351 339.922 288.739 339.753 270.898C324.246 274.054 302.677 275.006 283.517 273.528C283.545 291.276 284.417 300.739 286.477 317.33Z" fill="#9A2D4C"/>
<path d="M334.425 314.957C345.772 309.622 362.74 292.31 364.492 276.943C365.104 271.58 363.861 266.453 359.879 262.155C357.161 265.938 349.706 268.872 339.753 270.898C339.922 288.739 338.633 298.351 334.425 314.957Z" fill="#4A9A94"/>
<path d="M226.69 294.163C226.69 296.94 227.101 299.633 227.874 302.202C232.026 316.005 246.618 326.2 263.983 326.2C272.864 326.2 281.02 323.533 287.425 319.081C287.988 318.69 288.537 318.285 289.072 317.867C288.226 317.695 287.362 317.516 286.477 317.33C250.355 309.732 232.375 287.655 235.067 273.929C229.83 279.446 226.69 286.489 226.69 294.163Z" fill="#E0E0E0"/>
<path d="M341.529 321.454C353.007 321.454 362.96 315.429 367.869 306.622C369.951 302.887 371.126 298.652 371.126 294.163C371.126 287.634 368.64 281.64 364.492 276.943C362.74 292.31 345.772 309.622 334.425 314.957C331.849 316.168 329.435 317.177 327.092 317.993C327.854 318.387 328.637 318.75 329.439 319.081C333.13 320.606 337.222 321.454 341.529 321.454Z" fill="#E0E0E0"/>
<path d="M287.425 319.081C281.02 323.533 272.864 326.2 263.983 326.2C246.618 326.2 232.026 316.005 227.874 302.202C226.5 325.726 225.996 338.947 226.659 361.388C226.649 361.052 226.669 361.72 226.659 361.388C247.378 373.254 262.49 378.426 286.477 368.917C286.737 364.979 286.955 361.389 287.132 357.98C287.785 345.366 287.871 335.225 287.425 319.081Z" fill="#9A2D4C"/>
<path d="M341.529 321.454C337.222 321.454 333.13 320.606 329.439 319.081C326.416 338.906 327.715 344.388 328.993 361.015C346.253 362.187 356.439 364.9 373.592 359.89C373.127 339.279 372.579 327.831 367.869 306.622C362.96 315.429 353.007 321.454 341.529 321.454Z" fill="#9A2D4C"/>
<path d="M373.592 359.89C356.439 364.9 346.253 362.187 328.993 361.015C327.914 363.231 327.322 365.644 327.322 368.168C327.322 373.944 330.423 379.136 335.355 382.72C339.656 385.845 345.348 387.746 351.592 387.746C359.793 387.746 367.045 384.465 371.438 379.44C374.225 376.253 375.862 372.365 375.862 368.168C375.862 365.21 375.049 362.405 373.592 359.89Z" fill="#E0E0E0"/>
<path d="M364.023 391.306C351.069 390.726 343.581 389.907 329.098 385.967L332.649 442.328C347.004 447.428 354.689 449.072 368.167 451.228C367.096 427.667 366.335 414.485 364.023 391.306Z" fill="#4A9A94"/>
<path d="M329.098 385.967C343.581 389.907 351.069 390.726 364.023 391.306L376.454 379.44H371.438C367.045 384.465 359.793 387.746 351.592 387.746C345.348 387.746 339.656 385.845 335.355 382.72L329.098 385.967Z" fill="#4A9A94"/>
<path d="M376.454 379.44L364.023 391.306C366.335 414.485 367.096 427.667 368.167 451.228L380.598 435.802C379.737 413.235 378.817 400.903 376.454 379.44Z" fill="#4A9A94"/>
<path d="M287.069 391.471C283.19 396.259 280.061 400.105 274.046 405.545L275.822 479.112L288.845 456.567C288.397 431.815 288.778 416.577 287.069 391.471Z" fill="#4A9A94"/>
<path d="M274.046 405.545C254.422 404.128 243.768 402.48 225.506 397.239C224.97 424.78 225.731 439.559 227.874 465.466C246.634 473.314 257.133 476.219 275.822 479.112L274.046 405.545Z" fill="#4A9A94"/>
<path d="M286.477 368.917C262.49 378.426 247.378 373.254 226.659 361.388C226.649 361.052 226.669 361.72 226.659 361.388C225.908 364.113 225.506 366.983 225.506 369.948C225.506 378.233 228.644 385.783 233.793 391.471C239.641 397.929 248.084 401.985 257.471 401.985C267.982 401.985 278.493 397.898 284.109 390.532C288.298 385.039 289.765 377.722 286.477 368.917Z" fill="#E0E0E0"/>
<path d="M257.471 401.985C248.084 401.985 239.641 397.929 233.793 391.471C229.587 393.911 228.21 395.096 225.506 397.239C243.768 402.48 254.422 404.128 274.046 405.545C280.061 400.105 283.19 396.259 287.069 391.471L284.109 390.532C278.493 397.898 267.982 401.985 257.471 401.985Z" fill="#4A9A94"/>
<path d="M288.845 456.567L275.822 479.112C257.133 476.219 246.634 473.314 227.874 465.466C226.098 464.873 223.366 464.873 221.362 464.873C194.881 464.873 173.414 482.139 173.414 503.437C173.414 524.735 194.881 542 221.362 542C234.52 542 247.032 538.331 255.695 531.429C271.571 517.419 289.439 501.651 292.989 492.164C296.54 482.672 293.346 469.015 288.845 456.567Z" fill="#9A2D4C"/>
<path d="M368.167 451.228C354.689 449.072 347.004 447.428 332.649 442.328C329.451 454.504 328.507 466.653 331.466 473.179C334.424 479.705 350.408 488.605 375.862 487.418C391.392 494.799 399.54 496.317 416.115 495.131C432.69 493.944 438.017 483.265 438.017 462.5C438.017 446.445 419.995 433.429 397.764 433.429C391.4 433.429 385.948 433.903 380.598 435.802L368.167 451.228Z" fill="#9A2D4C"/>
<path d="M208.931 186.625V130.856C205.812 130.742 202.865 130.651 200.052 130.587C185.408 130.252 174.388 130.634 161.575 132.105C160.001 170.337 159.994 191.315 163.04 227.13C178.085 228.453 190.226 227.424 208.61 222.311L208.931 222.222V204.423V186.625Z" fill="#4A9A94"/>
<path d="M145 134.416C145.047 178.256 145.011 203.451 147.368 225.188C153.092 226.039 158.215 226.705 163.04 227.13C159.994 191.315 160.001 170.337 161.575 132.105C156.452 132.694 151.042 133.456 145 134.416Z" fill="#4A9A94"/>
<path d="M163.04 227.13C159.002 226.774 154.755 226.25 150.122 225.59C150.122 228.571 150.722 231.431 151.829 234.086C155.953 243.98 167.114 251.045 180.517 251.045C195.859 251.045 206.65 242.427 208.61 230.391C208.822 229.09 208.931 227.748 208.931 226.374C208.931 224.999 208.822 223.641 208.61 222.311C190.226 227.424 178.085 228.453 163.04 227.13Z" fill="#E0E0E0"/>
<path d="M275.822 207.693C252.217 203.616 228.974 196.208 208.931 186.625V204.423C217.046 218.02 229.561 229.276 244.448 237.686C256.307 244.385 269.672 249.28 283.517 252.115C277.682 236.729 276.52 226.641 275.822 207.693Z" fill="#4A9A94"/>
<path d="M275.822 207.693C276.52 226.641 277.682 236.729 283.517 252.115C306.876 256.897 331.602 255.818 352.776 247.656C361.043 230.798 362.654 221.343 362.688 204.423C337.158 212.668 306.189 212.937 275.822 207.693Z" fill="#9A2D4C"/>
<path d="M398.356 206.203C403.099 191.522 405.861 181.278 407.342 172.979C396.849 188.277 381.198 198.446 362.688 204.423C362.654 221.343 361.043 230.798 352.776 247.656C355.192 246.724 357.563 245.701 359.879 244.583C376.234 236.691 389.918 224.111 398.356 206.203Z" fill="#4A9A94"/>
<path d="M244.448 263.935C251.854 269.089 266.764 272.237 283.517 273.528C302.677 275.006 324.246 274.054 339.753 270.898C349.706 268.872 357.161 265.938 359.879 262.155C360.448 255.187 360.325 251.349 359.879 244.583C357.563 245.701 355.192 246.724 352.776 247.656C331.602 255.818 306.876 256.897 283.517 252.115C269.672 249.28 256.307 244.385 244.448 237.686C243.996 247.563 244.04 253.239 244.448 263.935Z" fill="#E0E0E0"/>
<path d="M408.42 148.061C405.89 140.845 402.017 135.296 397.279 130.855C387.602 121.786 374.314 117.339 361.48 112.757C372.499 125.816 377.643 142.133 372.902 157.554C362.688 190.775 255.695 184.521 246.816 157.554C241.997 142.918 247.639 123.373 260.431 108.558C231.913 115.454 218.834 120.39 200.052 130.587C202.865 130.651 205.812 130.742 208.931 130.856V186.625C228.974 196.208 252.217 203.616 275.822 207.693C306.189 212.937 337.158 212.668 362.688 204.423C381.198 198.446 396.849 188.277 407.342 172.979C409.06 163.354 409.055 156.344 408.42 148.061Z" fill="#4A9A94"/>
<path d="M408.42 148.061C409.055 156.344 409.06 163.354 407.342 172.979C405.861 181.278 403.099 191.522 398.356 206.203V215.101L399.472 215.557L414.339 221.627L415.523 134.415L397.279 130.855C402.017 135.296 405.89 140.845 408.42 148.061Z" fill="#4A9A94"/>
<path d="M415.523 134.415L414.339 221.627H454V137.381L415.523 134.415Z" fill="#4A9A94"/>
<path d="M397.279 130.855L415.523 134.415L454 137.381L397.279 130.855Z" fill="#4A9A94"/>
<path d="M452.816 221.627H414.339L399.472 215.557C398.746 217.481 398.356 219.518 398.356 221.627C398.356 224.124 398.902 226.52 399.906 228.747C403.644 237.042 413.73 242.985 425.586 242.985C436.278 242.985 445.53 238.152 449.986 231.12C451.797 228.26 452.816 225.037 452.816 221.627Z" fill="#E0E0E0"/>
<path d="M168.678 321.299C174.598 327.232 201.236 327.232 205.971 319.519C210.707 311.806 210.986 267.285 208.61 230.391C206.65 242.427 195.859 251.045 180.517 251.045C167.114 251.045 155.953 243.98 151.829 234.086C155.735 282.142 162.759 315.366 168.678 321.299Z" fill="#9A2D4C"/>
<path d="M205.971 319.519C201.236 327.232 174.598 327.232 168.678 321.299C162.921 358.341 166.373 369.766 179.333 380.627C182.138 383.395 183.309 383.258 185.253 382.407C189.397 385.967 193.54 386.56 193.54 382.407C195.908 384.138 203.011 384.78 201.236 380.627C200.403 378.679 199.83 372.165 199.457 365.795C202.28 370.673 204.787 371.134 207.155 365.795C209.523 360.455 210.388 338.47 205.971 319.519Z" fill="#E0E0E0"/>
<path d="M425.586 242.985C413.73 242.985 403.644 237.042 399.906 228.747C398.995 261.655 399.383 279.909 405.46 311.213C420.361 314.253 428.446 314.515 442.161 311.213C451.737 282.751 451.756 264.476 449.986 231.12C445.53 238.152 436.278 242.985 425.586 242.985Z" fill="#9A2D4C"/>
<path d="M442.161 311.213C428.446 314.515 420.361 314.253 405.46 311.213C400.132 329.605 401.316 350.37 403.684 355.709C406.052 361.049 409.603 361.049 411.382 355.709C411.009 362.079 410.436 368.594 409.603 370.541C407.828 374.694 414.931 374.052 417.299 372.321C417.299 376.474 421.443 375.881 425.586 372.321C427.53 373.172 428.701 373.309 431.506 370.541C444.466 359.68 447.918 348.255 442.161 311.213Z" fill="#E0E0E0"/>
<path d="M230.954 83C229.023 85.6439 225.96 86.6887 224.114 85.3338C222.267 83.9789 222.336 80.7373 224.267 78.0935C226.198 75.4497 229.261 74.4048 231.107 75.7597C232.954 77.1146 232.885 80.3562 230.954 83Z" fill="black"/>
<path d="M319.034 105.34C302.034 105.34 288.253 120.215 288.253 138.564C299.861 137.642 309.007 137.131 318.068 137.081C320.283 137.069 322.493 137.084 324.732 137.127C332.306 137.274 340.22 137.744 349.816 138.564C349.816 120.215 336.035 105.34 319.034 105.34Z" fill="#4A9A94"/>
<path d="M321.402 145.09C323.364 145.09 324.954 142.965 324.954 140.344C324.954 139.02 324.853 138.007 324.732 137.127C322.493 137.084 320.283 137.069 318.068 137.081C317.927 137.964 317.851 139.039 317.851 140.344C317.851 142.965 319.441 145.09 321.402 145.09Z" fill="black"/>
<path d="M319.034 171.788C336.035 171.788 349.816 156.913 349.816 138.564C340.22 137.744 332.306 137.274 324.732 137.127C324.853 138.007 324.954 139.02 324.954 140.344C324.954 142.965 323.364 145.09 321.402 145.09C319.441 145.09 317.851 142.965 317.851 140.344C317.851 139.039 317.927 137.964 318.068 137.081C309.007 137.131 299.861 137.642 288.253 138.564C288.253 156.913 302.034 171.788 319.034 171.788Z" fill="white"/>
<path fill-rule="evenodd" clip-rule="evenodd" d="M246.816 157.554C255.695 184.521 362.688 190.775 372.902 157.554C377.643 142.133 372.499 125.816 361.48 112.757C350.476 99.7165 333.615 89.9252 314.891 87.521C311.971 87.1461 309.006 86.9508 306.012 86.9508C287.063 86.9508 271.209 96.0755 260.431 108.558C247.639 123.373 241.997 142.918 246.816 157.554ZM349.816 138.564C349.816 156.913 336.035 171.788 319.034 171.788C302.034 171.788 288.253 156.913 288.253 138.564C288.253 120.215 302.034 105.34 319.034 105.34C336.035 105.34 349.816 120.215 349.816 138.564Z" fill="#4A9A94"/>
<path d="M244.448 263.935C251.854 269.089 266.764 272.237 283.517 273.528M244.448 263.935C239.046 265.837 235.949 269.435 235.067 273.929M244.448 263.935C244.04 253.239 243.996 247.563 244.448 237.686M359.879 262.155C357.161 265.938 349.706 268.872 339.753 270.898M359.879 262.155C363.861 266.453 365.104 271.58 364.492 276.943M359.879 262.155C360.448 255.187 360.325 251.349 359.879 244.583M286.477 317.33C284.417 300.739 283.545 291.276 283.517 273.528M286.477 317.33C250.355 309.732 232.375 287.655 235.067 273.929M286.477 317.33C287.362 317.516 288.226 317.695 289.072 317.867M334.425 314.957C338.633 298.351 339.922 288.739 339.753 270.898M334.425 314.957C331.849 316.168 329.435 317.177 327.092 317.993M334.425 314.957C345.772 309.622 362.74 292.31 364.492 276.943M283.517 273.528C302.677 275.006 324.246 274.054 339.753 270.898M235.067 273.929C229.83 279.446 226.69 286.489 226.69 294.163C226.69 296.94 227.101 299.633 227.874 302.202M289.072 317.867C306.588 321.419 316.051 321.841 327.092 317.993M289.072 317.867C288.537 318.285 287.988 318.69 287.425 319.081M327.092 317.993C327.854 318.387 328.637 318.75 329.439 319.081M364.492 276.943C368.64 281.64 371.126 287.634 371.126 294.163C371.126 298.652 369.951 302.887 367.869 306.622M287.425 319.081C281.02 323.533 272.864 326.2 263.983 326.2C246.618 326.2 232.026 316.005 227.874 302.202M287.425 319.081C287.871 335.225 287.785 345.366 287.132 357.98C286.955 361.389 286.737 364.979 286.477 368.917M286.477 368.917C262.49 378.426 247.378 373.254 226.659 361.388M286.477 368.917C289.765 377.722 288.298 385.039 284.109 390.532M226.659 361.388C225.908 364.113 225.506 366.983 225.506 369.948C225.506 378.233 228.644 385.783 233.793 391.471M226.659 361.388C225.996 338.947 226.5 325.726 227.874 302.202M226.659 361.388C226.669 361.72 226.649 361.052 226.659 361.388ZM329.439 319.081C333.13 320.606 337.222 321.454 341.529 321.454C353.007 321.454 362.96 315.429 367.869 306.622M329.439 319.081C326.416 338.906 327.715 344.388 328.993 361.015M328.993 361.015C346.253 362.187 356.439 364.9 373.592 359.89M328.993 361.015C327.914 363.231 327.322 365.644 327.322 368.168C327.322 373.944 330.423 379.136 335.355 382.72M373.592 359.89C373.127 339.279 372.579 327.831 367.869 306.622M373.592 359.89C375.049 362.405 375.862 365.21 375.862 368.168C375.862 372.365 374.225 376.253 371.438 379.44M233.793 391.471C239.641 397.929 248.084 401.985 257.471 401.985C267.982 401.985 278.493 397.898 284.109 390.532M233.793 391.471C229.587 393.911 228.21 395.096 225.506 397.239M225.506 397.239C243.768 402.48 254.422 404.128 274.046 405.545M225.506 397.239C224.97 424.78 225.731 439.559 227.874 465.466M274.046 405.545C280.061 400.105 283.19 396.259 287.069 391.471M274.046 405.545L275.822 479.112M287.069 391.471L284.109 390.532M287.069 391.471C288.778 416.577 288.397 431.815 288.845 456.567M288.845 456.567L275.822 479.112M288.845 456.567C293.346 469.015 296.54 482.672 292.989 492.164C289.439 501.651 271.571 517.419 255.695 531.429C247.032 538.331 234.52 542 221.362 542C194.881 542 173.414 524.735 173.414 503.437C173.414 482.139 194.881 464.873 221.362 464.873C223.366 464.873 226.098 464.873 227.874 465.466M275.822 479.112C257.133 476.219 246.634 473.314 227.874 465.466M329.098 385.967C343.581 389.907 351.069 390.726 364.023 391.306M329.098 385.967L335.355 382.72M329.098 385.967L332.649 442.328M364.023 391.306L376.454 379.44M364.023 391.306C366.335 414.485 367.096 427.667 368.167 451.228M376.454 379.44H371.438M376.454 379.44C378.817 400.903 379.737 413.235 380.598 435.802M371.438 379.44C367.045 384.465 359.793 387.746 351.592 387.746C345.348 387.746 339.656 385.845 335.355 382.72M332.649 442.328C347.004 447.428 354.689 449.072 368.167 451.228M332.649 442.328C329.451 454.504 328.507 466.653 331.466 473.179C334.424 479.705 350.408 488.605 375.862 487.418C391.392 494.799 399.54 496.317 416.115 495.131C432.69 493.944 438.017 483.265 438.017 462.5C438.017 446.445 419.995 433.429 397.764 433.429C391.4 433.429 385.948 433.903 380.598 435.802M368.167 451.228L380.598 435.802M208.931 204.423V186.625M208.931 204.423V222.222M208.931 204.423C217.046 218.02 229.561 229.276 244.448 237.686M398.356 206.203C403.099 191.522 405.861 181.278 407.342 172.979M398.356 206.203C389.918 224.111 376.234 236.691 359.879 244.583M398.356 206.203V215.101L399.472 215.557M361.48 112.757C350.476 99.7165 333.615 89.9252 314.891 87.521M361.48 112.757C372.499 125.816 377.643 142.133 372.902 157.554C362.688 190.775 255.695 184.521 246.816 157.554C241.997 142.918 247.639 123.373 260.431 108.558M361.48 112.757C374.314 117.339 387.602 121.786 397.279 130.855M208.931 186.625C228.974 196.208 252.217 203.616 275.822 207.693M208.931 186.625V130.856C205.812 130.742 202.865 130.651 200.052 130.587M407.342 172.979C409.06 163.354 409.055 156.344 408.42 148.061C405.89 140.845 402.017 135.296 397.279 130.855M407.342 172.979C396.849 188.277 381.198 198.446 362.688 204.423M275.822 207.693C276.52 226.641 277.682 236.729 283.517 252.115M275.822 207.693C306.189 212.937 337.158 212.668 362.688 204.423M283.517 252.115C306.876 256.897 331.602 255.818 352.776 247.656M283.517 252.115C269.672 249.28 256.307 244.385 244.448 237.686M352.776 247.656C361.043 230.798 362.654 221.343 362.688 204.423M352.776 247.656C355.192 246.724 357.563 245.701 359.879 244.583M208.931 222.222C208.824 222.252 208.717 222.281 208.61 222.311M208.931 222.222L208.61 222.311M161.575 132.105C156.452 132.694 151.042 133.456 145 134.416C145.047 178.256 145.011 203.451 147.368 225.188C153.092 226.039 158.215 226.705 163.04 227.13M161.575 132.105C160.001 170.337 159.994 191.315 163.04 227.13M161.575 132.105C174.388 130.634 185.408 130.252 200.052 130.587M163.04 227.13C178.085 228.453 190.226 227.424 208.61 222.311M163.04 227.13C159.002 226.774 154.755 226.25 150.122 225.59C150.122 228.571 150.722 231.431 151.829 234.086M200.052 130.587C218.834 120.39 231.913 115.454 260.431 108.558M260.431 108.558C271.209 96.0755 287.063 86.9508 306.012 86.9508C309.006 86.9508 311.971 87.1461 314.891 87.521M231.107 75.7614C261.615 44.8249 306.012 57.882 314.891 87.521M208.61 222.311C208.822 223.641 208.931 224.999 208.931 226.374C208.931 227.748 208.822 229.09 208.61 230.391M414.339 221.627L415.523 134.415M414.339 221.627H454V137.381M414.339 221.627L399.472 215.557M414.339 221.627H452.816C452.816 225.037 451.797 228.26 449.986 231.12M415.523 134.415L397.279 130.855M415.523 134.415L454 137.381M397.279 130.855L454 137.381M399.472 215.557C398.746 217.481 398.356 219.518 398.356 221.627C398.356 224.124 398.902 226.52 399.906 228.747M399.906 228.747C403.644 237.042 413.73 242.985 425.586 242.985C436.278 242.985 445.53 238.152 449.986 231.12M399.906 228.747C398.995 261.655 399.383 279.909 405.46 311.213M405.46 311.213C420.361 314.253 428.446 314.515 442.161 311.213M405.46 311.213C400.132 329.605 401.316 350.37 403.684 355.709C406.052 361.049 409.603 361.049 411.382 355.709M442.161 311.213C451.737 282.751 451.756 264.476 449.986 231.12M442.161 311.213C447.918 348.255 444.466 359.68 431.506 370.541M205.971 319.519C201.236 327.232 174.598 327.232 168.678 321.299M205.971 319.519C210.707 311.806 210.986 267.285 208.61 230.391M205.971 319.519C210.388 338.47 209.523 360.455 207.155 365.795C204.787 371.134 202.28 370.673 199.457 365.795M168.678 321.299C162.759 315.366 155.735 282.142 151.829 234.086M168.678 321.299C162.921 358.341 166.373 369.766 179.333 380.627M151.829 234.086C155.953 243.98 167.114 251.045 180.517 251.045C195.859 251.045 206.65 242.427 208.61 230.391M179.333 380.627C172.652 372.25 169.862 366.388 169.27 356.303M179.333 380.627C182.138 383.395 183.309 383.258 185.253 382.407M175.782 356.303C175.782 364.609 181.109 378.847 185.253 382.407M185.253 382.407C189.397 385.967 193.54 386.56 193.54 382.407M193.54 382.407C187.598 374.279 187.635 368.514 186.437 358.676M193.54 382.407C195.908 384.138 203.011 384.78 201.236 380.627C200.403 378.679 199.83 372.165 199.457 365.795M198.868 351.556C198.868 351.556 199.035 358.583 199.457 365.795M431.506 370.541C438.187 362.164 440.977 356.303 441.569 346.217M431.506 370.541C428.701 373.309 427.53 373.172 425.586 372.321M435.057 346.217C435.057 354.523 429.73 368.761 425.586 372.321M425.586 372.321C421.443 375.881 417.299 376.474 417.299 372.321M417.299 372.321C423.241 364.194 423.204 358.428 424.402 348.59M417.299 372.321C414.931 374.052 407.828 374.694 409.603 370.541C410.436 368.594 411.009 362.079 411.382 355.709M411.971 341.47C411.971 341.47 411.804 348.497 411.382 355.709M349.816 138.564C349.816 156.913 336.035 171.788 319.034 171.788C302.034 171.788 288.253 156.913 288.253 138.564M349.816 138.564C349.816 120.215 336.035 105.34 319.034 105.34C302.034 105.34 288.253 120.215 288.253 138.564M349.816 138.564C340.22 137.744 332.306 137.274 324.732 137.127M288.253 138.564C299.861 137.642 309.007 137.131 318.068 137.081M318.068 137.081C317.927 137.964 317.851 139.039 317.851 140.344C317.851 142.965 319.441 145.09 321.402 145.09C323.364 145.09 324.954 142.965 324.954 140.344C324.954 139.02 324.853 138.007 324.732 137.127M318.068 137.081C320.283 137.069 322.493 137.084 324.732 137.127M230.954 83C229.023 85.6439 225.96 86.6887 224.114 85.3338C222.267 83.9789 222.336 80.7373 224.267 78.0935C226.198 75.4497 229.261 74.4048 231.107 75.7597C232.954 77.1146 232.885 80.3562 230.954 83Z" stroke="black" stroke-linecap="round" stroke-linejoin="round"/>
</svg>
