<svg width="600" height="600" viewBox="0 0 600 600" fill="none" xmlns="http://www.w3.org/2000/svg">
<g clip-path="url(#clip0_1393_1578)">
<path d="M85 207.841L105.588 221.959C125.86 219.438 136.344 216.418 157.941 209.018C154.767 207.253 149.995 204.512 146.765 202.448C142.851 199.947 139.155 197.363 133.824 193.724L85 207.841Z" fill="#4A9A94"/>
<path d="M105.588 291.371V221.959L85 207.841V274.312L89.8676 278.345L105.588 291.371Z" fill="#4A9A94"/>
<path d="M105.588 221.959V291.371C114.438 291.371 139.313 287.672 152.052 281.993C154.555 280.877 156.589 279.685 157.941 278.429V209.018C136.344 216.418 125.86 219.438 105.588 221.959Z" fill="#4A9A94"/>
<path d="M146.765 202.448C149.995 204.512 154.767 207.253 157.941 209.018C173.95 218.623 203.474 225.383 236.176 228.261C263.621 230.676 293.304 230.357 319.118 226.69C341.661 223.488 361.253 217.734 373.824 209.018C373.674 202.65 369.055 197.218 357.187 191.359C351.18 188.394 343.317 185.319 333.235 181.959C321.471 202.448 225.588 210.779 203.824 178.429C175.992 184.112 163.91 190.569 146.765 202.448Z" fill="#4A9A94"/>
<path d="M236.176 228.261C203.474 225.383 173.95 218.623 157.941 209.018C157.941 253.967 179.156 283.125 210.882 298.093C221.422 303.065 233.121 306.472 245.588 308.372C238.846 282.57 237.072 264.528 236.176 228.261Z" fill="#4A9A94"/>
<path d="M245.588 308.372C253.545 309.584 261.814 310.183 270.294 310.183C285.651 310.183 299.394 307.928 311.471 303.545C319.898 273.857 319.513 256.91 319.118 226.69C293.304 230.357 263.621 230.676 236.176 228.261C237.072 264.528 238.846 282.57 245.588 308.372Z" fill="#9A2D4C"/>
<path d="M311.471 303.545C316.463 301.734 321.17 299.558 325.588 297.028C335.238 291.503 343.512 284.286 350.37 275.47C350.591 275.187 350.81 274.902 351.027 274.615C352.743 272.354 354.367 269.991 355.9 267.527C365.597 251.938 371.624 232.306 373.824 209.018C361.253 217.734 341.661 223.488 319.118 226.69C319.513 256.91 319.898 273.857 311.471 303.545Z" fill="#4A9A94"/>
<path d="M359.118 187.83L380.294 201.359C395.813 205.129 404.002 206.319 417.941 207.241C412.647 201.359 407.073 198.06 395.588 192.536L359.118 187.83Z" fill="#4A9A94"/>
<path d="M357.187 191.359C369.055 197.218 373.674 202.65 373.824 209.018C371.624 232.306 365.597 251.938 355.9 267.527L367.353 275.477C373.159 247.202 376.043 231 380.294 201.359L359.118 187.83L357.187 191.359Z" fill="#4A9A94"/>
<path d="M89.7059 281.359C89.7059 287.583 91.7553 293.356 95.2522 298.109C100.881 305.761 110.262 310.771 120.882 310.771C133.046 310.771 143.582 304.2 148.72 294.615C150.761 290.809 151.95 286.527 152.052 281.993C139.313 287.672 114.438 291.371 105.588 291.371L89.8676 278.345C89.7607 279.336 89.7059 280.341 89.7059 281.359Z" fill="#E0E0E0"/>
<path d="M148.72 294.615C143.582 304.2 133.046 310.771 120.882 310.771C110.262 310.771 100.881 305.761 95.2522 298.109C95.9159 328.705 98.8321 344.574 113.824 367.83C134.619 372.727 145.352 372.556 160.294 359.006C160.769 327.547 159.418 311.929 148.72 294.615Z" fill="#9A2D4C"/>
<path d="M210.882 324.3C205.514 326.186 202.436 329.754 201.56 334.21C198.885 347.819 216.752 369.708 252.647 377.241C250.6 360.791 249.734 351.409 249.706 333.812C233.058 332.532 218.241 329.411 210.882 324.3Z" fill="#4A9A94"/>
<path d="M252.647 377.241C253.526 377.426 254.385 377.603 255.226 377.773C272.631 381.296 282.035 381.714 293.007 377.899C295.335 377.09 297.734 376.09 300.294 374.889C304.475 358.424 305.756 348.894 305.588 331.205C290.179 334.334 268.745 335.277 249.706 333.812C249.734 351.409 250.6 360.791 252.647 377.241Z" fill="#9A2D4C"/>
<path d="M300.294 374.889C311.57 369.599 328.431 352.435 330.172 337.199C330.78 331.88 329.545 326.797 325.588 322.536C322.887 326.287 315.479 329.196 305.588 331.205C305.756 348.894 304.475 358.424 300.294 374.889Z" fill="#4A9A94"/>
<path d="M260.8 3.997C261.634 6.6801 260.935 9.28281 259.238 9.8103C257.541 10.3378 255.489 8.59034 254.655 5.90724C253.821 3.22413 254.52 0.621431 256.217 0.093935C257.914 -0.433561 259.966 1.3139 260.8 3.997Z" fill="black"/>
<path fill-rule="evenodd" clip-rule="evenodd" d="M203.824 178.429C225.588 210.779 321.471 202.448 333.235 181.959V144.9C333.235 109.591 313.235 86.6676 270.294 86.6647C227.353 86.6618 203.824 109.594 203.824 144.9V178.429ZM306.176 154.889C306.176 175.68 292.218 192.536 275 192.536C257.782 192.536 243.824 175.68 243.824 154.889C243.824 134.097 257.782 117.241 275 117.241C292.218 117.241 306.176 134.097 306.176 154.889Z" fill="#4A9A94"/>
<path fill-rule="evenodd" clip-rule="evenodd" d="M275 192.536C292.218 192.536 306.176 175.68 306.176 154.889C306.176 134.097 292.218 117.241 275 117.241C257.782 117.241 243.824 134.097 243.824 154.889C243.824 175.68 257.782 192.536 275 192.536ZM281.471 157.241C281.471 159.84 279.627 161.947 277.353 161.947C275.079 161.947 273.235 159.84 273.235 157.241C273.235 154.642 275.079 152.536 277.353 152.536C279.627 152.536 281.471 154.642 281.471 157.241Z" fill="white"/>
<path d="M277.353 161.947C279.627 161.947 281.471 159.84 281.471 157.241C281.471 154.642 279.627 152.536 277.353 152.536C275.079 152.536 273.235 154.642 273.235 157.241C273.235 159.84 275.079 161.947 277.353 161.947Z" fill="black"/>
<path d="M193.235 354.272C193.235 357.024 193.644 359.695 194.412 362.243C198.538 375.928 213.039 386.036 230.294 386.036C239.119 386.036 247.224 383.392 253.589 378.977C254.148 378.59 254.694 378.188 255.226 377.773C254.385 377.603 253.526 377.426 252.647 377.241C216.752 369.708 198.885 347.819 201.56 334.21C196.356 339.68 193.235 346.663 193.235 354.272Z" fill="#E0E0E0"/>
<path d="M307.353 381.33C318.759 381.33 328.649 375.357 333.528 366.625C335.597 362.921 336.765 358.722 336.765 354.272C336.765 347.798 334.294 341.855 330.172 337.199C328.431 352.435 311.57 369.599 300.294 374.889C297.734 376.09 295.335 377.09 293.007 377.899C293.765 378.289 294.542 378.649 295.339 378.977C299.007 380.49 303.073 381.33 307.353 381.33Z" fill="#E0E0E0"/>
<path d="M270.294 310.183C261.814 310.183 253.545 309.584 245.588 308.372C233.121 306.472 221.422 303.065 210.882 298.093C210.325 308.976 210.274 314.628 210.882 324.3C218.241 329.411 233.058 332.532 249.706 333.812C268.745 335.277 290.179 334.334 305.588 331.205C315.479 329.196 322.887 326.287 325.588 322.536C326.188 312.766 326.167 307.191 325.588 297.028C321.17 299.558 316.463 301.734 311.471 303.545C299.394 307.928 285.651 310.183 270.294 310.183Z" fill="#E0E0E0"/>
<path d="M253.589 378.977C247.224 383.392 239.119 386.036 230.294 386.036C213.039 386.036 198.538 375.928 194.412 362.243C193.047 385.566 192.546 398.674 193.205 420.925C193.195 420.591 193.215 421.254 193.205 420.925C213.794 432.689 228.811 437.817 252.647 428.389C252.905 424.485 253.122 420.926 253.298 417.545C253.947 405.039 254.033 394.984 253.589 378.977Z" fill="#9A2D4C"/>
<path d="M307.353 381.33C303.073 381.33 299.007 380.49 295.339 378.977C292.336 398.634 293.626 404.069 294.896 420.555C312.047 421.716 322.17 424.407 339.215 419.44C338.753 399.004 338.208 387.653 333.528 366.625C328.649 375.357 318.759 381.33 307.353 381.33Z" fill="#9A2D4C"/>
<path d="M339.215 419.44C322.17 424.407 312.047 421.716 294.896 420.555C293.824 422.752 293.235 425.144 293.235 427.647C293.235 433.374 296.317 438.522 301.218 442.075C305.492 445.173 311.149 447.059 317.353 447.059C325.503 447.059 332.709 443.805 337.074 438.824C339.844 435.664 341.471 431.808 341.471 427.647C341.471 424.714 340.662 421.932 339.215 419.44Z" fill="#E0E0E0"/>
<path d="M329.706 450.588C316.834 450.013 309.392 449.201 295 445.294L298.529 501.176C312.794 506.233 320.43 507.863 333.824 510C332.759 486.639 332.003 473.57 329.706 450.588Z" fill="#4A9A94"/>
<path d="M295 445.294C309.392 449.201 316.834 450.013 329.706 450.588L342.059 438.824H337.074C332.709 443.805 325.503 447.059 317.353 447.059C311.149 447.059 305.492 445.173 301.218 442.075L295 445.294Z" fill="#4A9A94"/>
<path d="M342.059 438.824L329.706 450.588C332.003 473.57 332.759 486.639 333.824 510L346.176 494.706C345.321 472.33 344.407 460.104 342.059 438.824Z" fill="#4A9A94"/>
<path d="M253.235 450.751C249.38 455.499 246.271 459.312 240.294 464.706L242.059 537.647L255 515.294C254.555 490.753 254.934 475.644 253.235 450.751Z" fill="#4A9A94"/>
<path d="M240.294 464.706C220.794 463.301 210.206 461.667 192.059 456.471C191.527 483.778 192.282 498.43 194.412 524.118C213.055 531.898 223.488 534.779 242.059 537.647L240.294 464.706Z" fill="#4A9A94"/>
<path d="M252.647 428.389C228.811 437.817 213.794 432.689 193.205 420.925C193.195 420.591 193.215 421.254 193.205 420.925C192.458 423.626 192.059 426.472 192.059 429.412C192.059 437.626 195.177 445.112 200.294 450.751C206.105 457.155 214.495 461.176 223.824 461.176C234.268 461.176 244.713 457.124 250.294 449.821C254.457 444.374 255.914 437.119 252.647 428.389Z" fill="#E0E0E0"/>
<path d="M223.824 461.176C214.495 461.176 206.105 457.155 200.294 450.751C196.115 453.171 194.746 454.346 192.059 456.471C210.206 461.667 220.794 463.301 240.294 464.706C246.271 459.312 249.38 455.499 253.235 450.751L250.294 449.821C244.713 457.124 234.268 461.176 223.824 461.176Z" fill="#4A9A94"/>
<path d="M255 515.294L242.059 537.647C223.488 534.779 213.055 531.898 194.412 524.118C192.647 523.529 189.933 523.529 187.941 523.529C161.626 523.529 140.294 540.648 140.294 561.765C140.294 582.882 161.626 600 187.941 600C201.016 600 213.45 596.362 222.059 589.519C237.835 575.628 255.59 559.995 259.118 550.588C262.647 541.176 259.473 527.636 255 515.294Z" fill="#9A2D4C"/>
<path d="M333.824 510C320.43 507.863 312.794 506.233 298.529 501.176C295.351 513.248 294.413 525.294 297.353 531.765C300.293 538.235 316.176 547.059 341.471 545.882C356.903 553.2 364.999 554.706 381.471 553.529C397.942 552.353 403.235 541.765 403.235 521.176C403.235 505.258 385.327 492.353 363.235 492.353C356.911 492.353 351.493 492.822 346.176 494.706L333.824 510Z" fill="#9A2D4C"/>
<path d="M160.294 359.006C145.352 372.556 134.619 372.727 113.824 367.83C113.597 398.742 116.869 404.259 125.059 405.882C126.913 408.661 130.686 409.804 139.706 410L140.176 409.983C145.16 409.802 148.091 409.696 153.824 408.235C162.059 406.471 169.706 404.118 169.51 392.353C173.306 390.601 175.211 389.176 177.176 386.297C178.083 384.966 178.141 383.243 177.449 381.788C172.509 371.412 168.28 366.425 160.294 359.006Z" fill="#E0E0E0"/>
<path d="M417.941 207.241C404.002 206.319 395.813 205.129 380.294 201.359C376.043 231 373.159 247.202 367.353 275.477L378.529 277.647C382.647 270 397.54 268.628 410.294 266.471C415.638 243.312 416.946 230.341 417.941 207.241Z" fill="#4A9A94"/>
<path d="M367.353 275.477L355.9 267.527C354.367 269.991 352.743 272.354 351.027 274.615C350.81 274.902 350.591 275.187 350.37 275.47C349.183 278.508 348.529 281.823 348.529 285.294C348.529 299.913 360.117 311.765 374.412 311.765C376.96 311.765 379.422 311.388 381.748 310.686C380.422 309.547 379.325 308.16 378.529 306.471C373.824 296.471 374.412 285.294 378.529 277.647L367.353 275.477Z" fill="#E0E0E0"/>
<path d="M410.294 266.471C397.54 268.628 382.647 270 378.529 277.647C374.412 285.294 373.824 296.471 378.529 306.471C379.325 308.16 380.422 309.547 381.748 310.686C388.269 316.289 400.318 315.882 409.118 315.882C410.059 315.882 438.529 313.726 450.882 310.686C458.612 308.785 466.342 305.078 470.757 298.824C473.397 295.083 474.852 290.43 474.412 284.706C473.753 276.141 470.881 270.528 465.588 267.247C461.43 264.668 455.777 263.529 448.529 263.529C432.059 263.529 410.294 266.471 410.294 266.471Z" fill="#9A2D4C"/>
<path d="M465.588 267.247C470.881 270.528 473.753 276.141 474.412 284.706C474.852 290.43 473.397 295.083 470.757 298.824C483.642 299.039 489.422 297.414 497.941 292.353C493.824 291.765 493.824 288.235 496.765 285.882C494.412 285.294 494.603 283.684 494.412 281.139L493.235 281.176C489.118 281.176 489.823 274.23 491.471 272.941C501.22 272.536 505.134 269.294 509.706 258.824C510.882 252.353 506.964 246.652 502.647 248.824C497.381 251.756 488.412 255.365 486.176 254.706C489.706 242.353 479.706 229.412 475 225.294C470.294 221.176 465.363 224.706 467.353 229.412C469.343 234.118 479.118 252.941 465.588 267.247Z" fill="#E0E0E0"/>
<path d="M491.471 272.941C489.823 274.23 489.118 281.176 493.235 281.176L494.412 281.139C503.846 280.746 507.937 278.2 512.059 269.412C513.464 264.481 512.059 262.353 509.706 258.824C505.134 269.294 501.22 272.536 491.471 272.941Z" fill="#E0E0E0"/>
<path d="M496.765 285.882C505.655 287.378 509.055 284.496 515 279.412C515.192 272.314 514.396 270.491 512.059 269.412C507.937 278.2 503.846 280.746 494.412 281.139C494.603 283.684 494.412 285.294 496.765 285.882Z" fill="#E0E0E0"/>
<path d="M497.941 292.353C508.298 292.885 513.824 290 515 279.412C509.055 284.496 505.655 287.378 496.765 285.882C493.824 288.235 493.824 291.765 497.941 292.353Z" fill="#E0E0E0"/>
<path d="M105.588 221.959V291.371M105.588 221.959L85 207.841M105.588 221.959C125.86 219.438 136.344 216.418 157.941 209.018M105.588 291.371L89.8676 278.345M105.588 291.371C114.438 291.371 139.313 287.672 152.052 281.993M85 207.841V274.312L89.8676 278.345M85 207.841L133.824 193.724C139.155 197.363 142.851 199.947 146.765 202.448M157.941 209.018V278.429C156.589 279.685 154.555 280.877 152.052 281.993M157.941 209.018C154.767 207.253 149.995 204.512 146.765 202.448M157.941 209.018C173.95 218.623 203.474 225.383 236.176 228.261M157.941 209.018C157.941 253.967 179.156 283.125 210.882 298.093M146.765 202.448C163.91 190.569 175.992 184.112 203.824 178.429M203.824 178.429C225.588 210.779 321.471 202.448 333.235 181.959M203.824 178.429C203.824 178.429 203.824 181.372 203.824 144.9M203.824 178.429V144.9M373.824 209.018C373.674 202.65 369.055 197.218 357.187 191.359M373.824 209.018C361.253 217.734 341.661 223.488 319.118 226.69M373.824 209.018C371.624 232.306 365.597 251.938 355.9 267.527M333.235 181.959C333.235 181.959 333.235 180.209 333.235 144.9M333.235 181.959V144.9M333.235 181.959C343.317 185.319 351.18 188.394 357.187 191.359M203.824 144.9C203.824 109.594 227.353 86.6618 270.294 86.6647M333.235 144.9C333.235 109.591 313.235 86.6676 270.294 86.6647M270.294 86.6647C270.032 50.4519 267.682 37.9483 259.238 9.8103M259.238 9.8103C260.935 9.28281 261.634 6.6801 260.8 3.997C259.966 1.3139 257.914 -0.433561 256.217 0.093935C254.52 0.621431 253.821 3.22413 254.655 5.90724C255.489 8.59034 257.541 10.3378 259.238 9.8103ZM359.118 187.83L357.187 191.359M359.118 187.83L380.294 201.359M359.118 187.83L395.588 192.536C407.073 198.06 412.647 201.359 417.941 207.241M380.294 201.359C395.813 205.129 404.002 206.319 417.941 207.241M380.294 201.359C376.043 231 373.159 247.202 367.353 275.477M417.941 207.241C416.946 230.341 415.638 243.312 410.294 266.471M367.353 275.477L355.9 267.527M367.353 275.477L378.529 277.647M355.9 267.527C354.367 269.991 352.743 272.354 351.027 274.615C350.81 274.902 350.591 275.187 350.37 275.47M236.176 228.261C237.072 264.528 238.846 282.57 245.588 308.372M236.176 228.261C263.621 230.676 293.304 230.357 319.118 226.69M245.588 308.372C253.545 309.584 261.814 310.183 270.294 310.183C285.651 310.183 299.394 307.928 311.471 303.545M245.588 308.372C233.121 306.472 221.422 303.065 210.882 298.093M311.471 303.545C319.898 273.857 319.513 256.91 319.118 226.69M311.471 303.545C316.463 301.734 321.17 299.558 325.588 297.028M89.8676 278.345C89.7607 279.336 89.7059 280.341 89.7059 281.359C89.7059 287.583 91.7553 293.356 95.2522 298.109M152.052 281.993C151.95 286.527 150.761 290.809 148.72 294.615M148.72 294.615C143.582 304.2 133.046 310.771 120.882 310.771C110.262 310.771 100.881 305.761 95.2522 298.109M148.72 294.615C159.418 311.929 160.769 327.547 160.294 359.006M160.294 359.006C145.352 372.556 134.619 372.727 113.824 367.83M160.294 359.006C168.28 366.425 172.509 371.412 177.449 381.788C178.141 383.243 178.083 384.966 177.176 386.297C175.211 389.176 173.306 390.601 169.51 392.353M113.824 367.83C98.8321 344.574 95.9159 328.705 95.2522 298.109M113.824 367.83C113.597 398.742 116.869 404.259 125.059 405.882M210.882 298.093C210.325 308.976 210.274 314.628 210.882 324.3M210.882 324.3C218.241 329.411 233.058 332.532 249.706 333.812M210.882 324.3C205.514 326.186 202.436 329.754 201.56 334.21M325.588 322.536C326.188 312.766 326.167 307.191 325.588 297.028M325.588 322.536C322.887 326.287 315.479 329.196 305.588 331.205M325.588 322.536C329.545 326.797 330.78 331.88 330.172 337.199M325.588 297.028C335.238 291.503 343.512 284.286 350.37 275.47M252.647 377.241C250.6 360.791 249.734 351.409 249.706 333.812M252.647 377.241C216.752 369.708 198.885 347.819 201.56 334.21M252.647 377.241C253.526 377.426 254.385 377.603 255.226 377.773M300.294 374.889C304.475 358.424 305.756 348.894 305.588 331.205M300.294 374.889C297.734 376.09 295.335 377.09 293.007 377.899M300.294 374.889C311.57 369.599 328.431 352.435 330.172 337.199M249.706 333.812C268.745 335.277 290.179 334.334 305.588 331.205M275 117.241C257.782 117.241 243.824 134.097 243.824 154.889C243.824 175.68 257.782 192.536 275 192.536C292.218 192.536 306.176 175.68 306.176 154.889C306.176 134.097 292.218 117.241 275 117.241ZM275 117.241L277.353 152.536M277.353 152.536C275.079 152.536 273.235 154.642 273.235 157.241C273.235 159.84 275.079 161.947 277.353 161.947C279.627 161.947 281.471 159.84 281.471 157.241C281.471 154.642 279.627 152.536 277.353 152.536ZM201.56 334.21C196.356 339.68 193.235 346.663 193.235 354.272C193.235 357.024 193.644 359.695 194.412 362.243M255.226 377.773C272.631 381.296 282.035 381.714 293.007 377.899M255.226 377.773C254.694 378.188 254.148 378.59 253.589 378.977M293.007 377.899C293.765 378.289 294.542 378.649 295.339 378.977M330.172 337.199C334.294 341.855 336.765 347.798 336.765 354.272C336.765 358.722 335.597 362.921 333.528 366.625M253.589 378.977C247.224 383.392 239.119 386.036 230.294 386.036C213.039 386.036 198.538 375.928 194.412 362.243M253.589 378.977C254.033 394.984 253.947 405.039 253.298 417.545C253.122 420.926 252.905 424.485 252.647 428.389M252.647 428.389C228.811 437.817 213.794 432.689 193.205 420.925M252.647 428.389C255.914 437.119 254.457 444.374 250.294 449.821M193.205 420.925C192.458 423.626 192.059 426.472 192.059 429.412C192.059 437.626 195.177 445.112 200.294 450.751M193.205 420.925C192.546 398.674 193.047 385.566 194.412 362.243M193.205 420.925C193.215 421.254 193.195 420.591 193.205 420.925ZM295.339 378.977C299.007 380.49 303.073 381.33 307.353 381.33C318.759 381.33 328.649 375.357 333.528 366.625M295.339 378.977C292.336 398.634 293.626 404.069 294.896 420.555M294.896 420.555C312.047 421.716 322.17 424.407 339.215 419.44M294.896 420.555C293.824 422.752 293.235 425.144 293.235 427.647C293.235 433.374 296.317 438.522 301.218 442.075M339.215 419.44C338.753 399.004 338.208 387.653 333.528 366.625M339.215 419.44C340.662 421.932 341.471 424.714 341.471 427.647C341.471 431.808 339.844 435.664 337.074 438.824M200.294 450.751C206.105 457.155 214.495 461.176 223.824 461.176C234.268 461.176 244.713 457.124 250.294 449.821M200.294 450.751C196.115 453.171 194.746 454.346 192.059 456.471M192.059 456.471C210.206 461.667 220.794 463.301 240.294 464.706M192.059 456.471C191.527 483.778 192.282 498.43 194.412 524.118M240.294 464.706C246.271 459.312 249.38 455.499 253.235 450.751M240.294 464.706L242.059 537.647M253.235 450.751L250.294 449.821M253.235 450.751C254.934 475.644 254.555 490.753 255 515.294M255 515.294L242.059 537.647M255 515.294C259.473 527.636 262.647 541.176 259.118 550.588C255.59 559.995 237.835 575.628 222.059 589.519C213.45 596.362 201.016 600 187.941 600C161.626 600 140.294 582.882 140.294 561.765C140.294 540.648 161.626 523.529 187.941 523.529C189.933 523.529 192.647 523.529 194.412 524.118M242.059 537.647C223.488 534.779 213.055 531.898 194.412 524.118M295 445.294C309.392 449.201 316.834 450.013 329.706 450.588M295 445.294L301.218 442.075M295 445.294L298.529 501.176M329.706 450.588L342.059 438.824M329.706 450.588C332.003 473.57 332.759 486.639 333.824 510M342.059 438.824H337.074M342.059 438.824C344.407 460.104 345.321 472.33 346.176 494.706M337.074 438.824C332.709 443.805 325.503 447.059 317.353 447.059C311.149 447.059 305.492 445.173 301.218 442.075M298.529 501.176C312.794 506.233 320.43 507.863 333.824 510M298.529 501.176C295.351 513.248 294.413 525.294 297.353 531.765C300.293 538.235 316.176 547.059 341.471 545.882C356.903 553.2 364.999 554.706 381.471 553.529C397.942 552.353 403.235 541.765 403.235 521.176C403.235 505.258 385.327 492.353 363.235 492.353C356.911 492.353 351.493 492.822 346.176 494.706M333.824 510L346.176 494.706M164.412 391.765C164.163 393.911 164.336 394.905 165 396.471C166.842 394.37 167.353 393.529 169.51 392.353M169.51 392.353C169.706 404.118 162.059 406.471 153.824 408.235M153.824 408.235C152.064 406.316 151.335 404.985 150.294 402.353M153.824 408.235C148.091 409.696 145.16 409.802 140.176 409.983M136.176 405.882C137.297 407.584 137.988 408.519 139.706 410M139.706 410C130.686 409.804 126.913 408.661 125.059 405.882M139.706 410L140.176 409.983M139.706 410C139.865 409.994 140.022 409.989 140.176 409.983M123.824 402.941C124.123 404.079 124.506 405.054 125.059 405.882M350.37 275.47C349.183 278.508 348.529 281.823 348.529 285.294C348.529 299.913 360.117 311.765 374.412 311.765C376.96 311.765 379.422 311.388 381.748 310.686M378.529 277.647C382.647 270 397.54 268.628 410.294 266.471M378.529 277.647C374.412 285.294 373.824 296.471 378.529 306.471C379.325 308.16 380.422 309.547 381.748 310.686M410.294 266.471C410.294 266.471 432.059 263.529 448.529 263.529C455.777 263.529 461.43 264.668 465.588 267.247M381.748 310.686C388.269 316.289 400.318 315.882 409.118 315.882C410.059 315.882 438.529 313.726 450.882 310.686C458.612 308.785 466.342 305.078 470.757 298.824M465.588 267.247C470.881 270.528 473.753 276.141 474.412 284.706C474.852 290.43 473.397 295.083 470.757 298.824M465.588 267.247C479.118 252.941 469.343 234.118 467.353 229.412C465.363 224.706 470.294 221.176 475 225.294C479.706 229.412 489.706 242.353 486.176 254.706C488.412 255.365 497.381 251.756 502.647 248.824C506.964 246.652 510.882 252.353 509.706 258.824M470.757 298.824C483.642 299.039 489.422 297.414 497.941 292.353M497.941 292.353C508.298 292.885 513.824 290 515 279.412M497.941 292.353C493.824 291.765 493.824 288.235 496.765 285.882M515 279.412C509.055 284.496 505.655 287.378 496.765 285.882M515 279.412C515.192 272.314 514.396 270.491 512.059 269.412M496.765 285.882C494.412 285.294 494.603 283.684 494.412 281.139M491.471 272.941C489.823 274.23 489.118 281.176 493.235 281.176L494.412 281.139M491.471 272.941C501.22 272.536 505.134 269.294 509.706 258.824M491.471 272.941C487.919 271.707 486.765 270 487.353 267.247C487.941 264.494 494.328 260.004 499.706 258.235M512.059 269.412C513.464 264.481 512.059 262.353 509.706 258.824M512.059 269.412C507.937 278.2 503.846 280.746 494.412 281.139" stroke="black" stroke-linecap="round" stroke-linejoin="round"/>
</g>
<defs>
<clipPath id="clip0_1393_1578">
<rect width="600" height="600" fill="white"/>
</clipPath>
</defs>
</svg>
