<svg width="100%" height="100%" viewBox="0 0 600 600" fill="none" xmlns="http://www.w3.org/2000/svg"><path fill-rule="evenodd" clip-rule="evenodd" d="M200.985 182.989C208.105 187.597 213.727 191.798 221.141 197.989C222.388 199.571 223.354 201.726 224.085 204.489C301.543 212.495 340.048 205.254 401.642 175.489C399.452 169.694 395.44 166.089 381.642 158.989C370.591 154.091 365.738 150.49 356.142 150.478C358.642 124.972 338.642 93.4786 302.642 95.4885C266.642 97.4985 249.642 120.989 256.142 159.489C230.968 165.331 219.351 170.902 200.985 182.989ZM309.142 172.977C322.949 172.977 331.642 161.389 331.642 146.477C331.642 131.565 317.449 121.977 303.642 121.977C289.834 121.977 284.142 131.065 284.142 145.977C284.142 160.889 295.334 172.977 309.142 172.977Z" fill="#B50202"/><path d="M414.907 151.617C412.818 149.935 410.142 149.164 407.478 149.474L381.642 152.489L407.142 172.989L432.142 165.489L414.907 151.617Z" fill="#870101"/><path d="M432.142 165.489L407.142 172.989C411.956 206.247 412.425 224.45 413.642 256.988L440.596 242.117V242.117C441.854 241.423 442.623 240.072 442.593 238.636C441.662 194.497 440.412 172.695 432.142 165.489Z" fill="#870101"/><path d="M224.085 204.489C227.035 215.627 226.179 236.654 224.641 269.988C239.169 289.213 249.195 294.45 270.142 295.477C304.197 297.465 322.385 295.763 353.142 287.477C382.033 277.257 391.219 268.151 398.142 247.488C403.826 218.454 406.47 202.284 401.642 175.489C340.048 205.254 301.543 212.495 224.085 204.489Z" fill="#B50202"/><path d="M221.141 197.989L187.641 205.489L185.641 285.488C191.712 287.657 201.318 284.142 217.003 274.727C219.404 273.286 221.947 271.707 224.641 269.988C226.179 236.654 227.035 215.627 224.085 204.489C223.354 201.726 222.388 199.571 221.141 197.989Z" fill="#870101"/><path d="M187.641 205.489L155.641 191.989C151.567 216.132 149.62 230.397 150.061 256.214C150.103 258.641 151.046 260.974 152.694 262.757C154.228 264.416 155.681 265.974 157.106 267.444C164.758 275.336 171.586 280.674 185.641 285.488L187.641 205.489Z" fill="#870101"/><path d="M155.641 191.989L187.641 205.489L221.141 197.989C213.727 191.798 208.105 187.597 200.985 182.989C198.737 181.533 196.34 180.038 193.689 178.426C191.133 176.871 188.006 176.569 185.198 177.6C171.944 182.466 164.515 185.831 155.641 191.989Z" fill="#870101"/><path d="M157.106 267.444C153.832 271.955 151.941 277.277 151.941 282.977C151.941 289.307 154.273 295.172 158.242 299.977C164.489 307.539 174.791 312.477 186.441 312.477C198.092 312.477 207.347 307.539 212.78 299.977C216.232 295.172 218.142 289.307 218.142 282.977C218.142 280.113 217.751 277.345 217.003 274.727C201.318 284.142 191.712 287.657 185.641 285.488C171.586 280.674 164.758 275.336 157.106 267.444Z" fill="#B2B1B1"/><path d="M186.441 312.477C174.791 312.477 164.489 307.539 158.242 299.977C160.716 322.689 163.535 334.115 170.676 347.444C171.881 349.694 174.111 351.209 176.642 351.546V351.546C193.011 353.729 203.167 353.02 216.642 344.353V344.353C218.791 342.97 219.744 340.349 219.17 337.858C216.101 324.551 214.746 315.42 212.78 299.977C207.347 307.539 198.092 312.477 186.441 312.477Z" fill="#870101"/><path d="M176.642 351.546C177.324 362.252 178.455 368.46 183.678 375.238C185.338 377.392 187.978 378.514 190.697 378.522C203.815 378.56 211.996 377.449 224.142 370.977C226.642 369.477 225.058 367.472 223.142 365.977C226.852 362.355 229.642 357.477 229.642 355.477C229.642 353.477 223.377 347.398 216.642 344.353C203.167 353.02 193.011 353.729 176.642 351.546Z" fill="#F0F0F0"/><path d="M353.142 300.477C353.142 302.564 351.796 304.418 349.806 305.05C321.123 314.161 303.942 316.397 278.655 314.952C274.619 314.722 271.407 311.507 271.089 307.477V307.477C265.243 309.517 262.31 310.897 262.149 317.854C262.144 318.057 262.142 318.265 262.142 318.477C262.142 325.715 270.525 340.405 289.988 345.467C290.691 345.65 291.409 345.82 292.142 345.977C313.142 350.477 322.142 348.977 341.642 342.477C344.679 341.465 347.353 340.088 349.689 338.468C359.966 331.344 363.711 319.516 363.176 313.283C363.052 311.837 362.698 310.692 362.142 309.977C358.642 305.477 353.142 300.477 353.142 300.477V300.477Z" fill="#B50202"/><path d="M244.642 334.477C244.642 344.142 256.058 351.977 270.142 351.977C278.159 351.977 285.313 349.438 289.988 345.467C270.525 340.405 262.142 325.715 262.142 318.477C262.142 318.265 262.144 318.057 262.149 317.854C251.981 320.155 244.642 326.728 244.642 334.477Z" fill="#870101"/><path d="M271.089 307.477C271.407 311.507 274.619 314.722 278.655 314.952C303.942 316.397 321.123 314.161 349.806 305.05C351.796 304.418 353.142 302.564 353.142 300.477V300.477V287.477C322.385 295.763 304.197 297.465 270.142 295.477L271.089 307.477V307.477Z" fill="#870101"/><path d="M270.142 351.977C256.058 351.977 244.642 344.142 244.642 334.477C242.722 359.959 242.036 374.26 241.66 398.768C241.649 399.456 242.147 400.066 242.828 400.168V400.168C258.769 402.548 268.481 402.678 284.492 401.184V401.184C285.757 401.066 286.776 400.095 286.964 398.839C289.859 379.549 291.197 367.74 292.142 345.977C291.409 345.82 290.691 345.65 289.988 345.467C285.313 349.438 278.159 351.977 270.142 351.977Z" fill="#870101"/><path d="M242.828 400.168C238.665 403.004 236.142 407.295 236.142 413.477C236.142 416.974 236.915 420.166 238.321 422.977C242.353 431.045 251.583 435.977 262.642 435.977C272.598 435.977 280.404 431.087 284.492 423.81C286.527 420.188 287.642 415.974 287.642 411.477C287.642 406.883 286.536 403.564 284.492 401.184C268.481 402.678 258.769 402.548 242.828 400.168Z" fill="#B2B1B1"/><path d="M290.142 426.477L270.642 440.477L273.142 521.477L284.829 504.977L288.302 500.074C289.499 498.385 290.142 496.365 290.142 494.294V426.477Z" fill="#870101"/><path d="M270.642 440.477L231.142 428.477C227.956 459.114 229.292 476.024 233.642 505.977L273.142 521.477L270.642 440.477Z" fill="#870101"/><path d="M262.642 435.977C251.583 435.977 242.353 431.045 238.321 422.977L231.142 428.477L270.642 440.477L290.142 426.477L284.492 423.81C280.404 431.087 272.598 435.977 262.642 435.977Z" fill="#870101"/><path d="M273.142 521.477L233.642 505.977C198.642 509.977 171.642 553.477 205.642 571.477C213.491 575.164 241.26 571.316 260.281 555.54C261.852 554.237 263.734 553.362 265.734 552.954C273.145 551.443 277.598 548.485 284.829 543.477C293.012 537.81 291.649 517.096 284.829 504.977L273.142 521.477Z" fill="#F2FF59"/><path d="M405.142 479.477L391.142 500.477L363.847 485.977C358.756 495.882 360.642 511.477 364.642 516.977C367.322 520.662 379.938 521.895 388.383 521.093C393.241 520.631 399.669 519.089 404.532 519.491C425.196 521.199 443.496 517.123 446.142 514.477C449.142 511.477 450.642 507.75 450.642 503.477C450.642 487.185 437.658 473.977 421.642 473.977C415.564 473.977 409.802 476.226 405.142 479.477Z" fill="#F2FF59"/><path d="M385.142 417.977L353.142 411.477L358.699 478.167C358.975 481.476 360.914 484.419 363.847 485.977V485.977L391.142 500.477L385.142 417.977Z" fill="#870101"/><path d="M402.642 404.477L385.142 417.977L391.142 500.477L405.142 479.477L402.642 404.477Z" fill="#870101"/><path d="M375.142 414.977C368.001 414.977 361.638 412.242 357.516 407.977L353.142 411.477L385.142 417.977L402.642 404.477L396.214 402.977C393.013 409.988 384.786 414.977 375.142 414.977Z" fill="#870101"/><path d="M386.695 380.599C386.957 381.976 386.19 383.342 384.875 383.825C374.118 387.779 367.491 389.106 357.191 389.435C356.268 389.465 355.432 388.89 355.126 388.019V388.019C353.538 390.554 352.642 393.429 352.642 396.477C352.642 400.823 354.464 404.82 357.516 407.977C361.638 412.242 368.001 414.977 375.142 414.977C384.786 414.977 393.013 409.988 396.214 402.977C397.137 400.955 397.642 398.764 397.642 396.477C397.642 389.733 393.253 383.832 386.695 380.599V380.599Z" fill="#B2B1B1"/><path d="M368.642 324.477C368.642 332.485 361.926 338.977 353.642 338.977C352.274 338.977 350.948 338.8 349.689 338.468C347.353 340.088 344.679 341.465 341.642 342.477C346.437 360.435 349.045 370.749 355.126 388.019V388.019C355.432 388.89 356.268 389.465 357.191 389.435C367.491 389.106 374.118 387.779 384.875 383.825C386.19 383.342 386.957 381.976 386.695 380.599V380.599C382.098 356.436 377.743 343.565 368.5 322.477C368.593 323.131 368.642 323.799 368.642 324.477Z" fill="#870101"/><path d="M353.642 338.977C361.926 338.977 368.642 332.485 368.642 324.477C368.642 323.799 368.593 323.131 368.5 322.477C367.974 318.788 366.011 315.542 363.176 313.283C363.711 319.516 359.966 331.344 349.689 338.468C350.948 338.8 352.274 338.977 353.642 338.977Z" fill="#870101"/><path d="M403.642 321.582C401.349 325.845 400.505 328.835 399.873 332.376C399.354 335.283 400.195 338.354 402.513 340.184C404.142 341.47 405.341 342.201 406.642 344.477V344.477C407.353 345.722 408.388 346.782 409.752 347.223C418.449 350.035 426.124 349.292 432.142 346.977C438.392 344.573 439.844 341.822 440.559 334.391C440.617 333.785 440.62 333.17 440.532 332.568C440.082 329.48 438.968 328.03 436.142 326.099C419.857 326.44 411.459 325.385 403.642 321.582Z" fill="#F0F0F0"/><path d="M422.142 280.977C413.443 280.977 405.849 276.151 401.785 268.977C399.506 288.329 399.195 299.34 400.393 316.582C400.54 318.707 401.726 320.65 403.642 321.582V321.582C411.459 325.385 419.857 326.44 436.142 326.099V326.099C438.915 326.041 441.283 324.371 441.763 321.639C443.461 311.969 444.745 289.584 440.642 271.778C436.34 277.379 429.652 280.977 422.142 280.977Z" fill="#870101"/><path d="M400.084 248.679C399.151 251.265 398.642 254.06 398.642 256.977C398.642 261.349 399.786 265.447 401.785 268.977C405.849 276.151 413.443 280.977 422.142 280.977C429.652 280.977 436.34 277.379 440.642 271.778C443.774 267.701 445.642 262.562 445.642 256.977C445.642 251.366 443.756 246.204 440.596 242.117L413.642 256.988L400.084 248.679Z" fill="#B2B1B1"/><path d="M407.142 172.989L381.642 152.489V158.989C395.44 166.089 399.452 169.694 401.642 175.489C406.47 202.284 403.826 218.454 398.142 247.488L400.084 248.679L413.642 256.988C412.425 224.45 411.956 206.247 407.142 172.989Z" fill="#870101"/><path d="M309.142 172.977C322.949 172.977 331.642 161.389 331.642 146.477C331.642 131.565 317.449 121.977 303.642 121.977L306.378 140.1C306.787 140.019 307.209 139.977 307.642 139.977C311.231 139.977 314.142 142.887 314.142 146.477C314.142 150.067 311.231 152.977 307.642 152.977C304.052 152.977 301.142 150.067 301.142 146.477C301.142 143.336 303.37 140.715 306.332 140.109C306.347 140.106 306.363 140.103 306.378 140.1L303.642 121.977C289.834 121.977 284.142 131.065 284.142 145.977C284.142 160.889 295.334 172.977 309.142 172.977Z" fill="#F0F0F0"/><path d="M307.642 152.977C311.231 152.977 314.142 150.067 314.142 146.477C314.142 142.887 311.231 139.977 307.642 139.977C307.209 139.977 306.787 140.019 306.378 140.1L306.332 140.109C303.37 140.715 301.142 143.336 301.142 146.477C301.142 150.067 304.052 152.977 307.642 152.977Z" fill="black"/><path d="M297.062 38.5765C298.906 37.6789 299.997 35.3068 299.584 32.7574C299.098 29.7589 296.715 27.6505 294.262 28.0482C291.809 28.4458 290.214 31.1988 290.7 34.1972C291.186 37.1957 293.568 39.3041 296.022 38.9065C296.389 38.8469 296.737 38.7346 297.062 38.5765Z" fill="black"/><path d="M155.641 191.989L187.641 205.489M155.641 191.989C164.515 185.831 171.944 182.466 185.198 177.6C188.006 176.569 191.133 176.871 193.689 178.426C196.34 180.038 198.737 181.533 200.985 182.989M155.641 191.989C151.567 216.132 149.62 230.397 150.061 256.214C150.103 258.641 151.046 260.974 152.694 262.757C154.228 264.416 155.681 265.974 157.106 267.444M187.641 205.489L221.141 197.989M187.641 205.489L185.641 285.488M221.141 197.989C213.727 191.798 208.105 187.597 200.985 182.989M221.141 197.989C222.388 199.571 223.354 201.726 224.085 204.489M185.641 285.488C171.586 280.674 164.758 275.336 157.106 267.444M185.641 285.488C191.712 287.657 201.318 284.142 217.003 274.727M224.641 269.988C226.179 236.654 227.035 215.627 224.085 204.489M224.641 269.988C239.169 289.213 249.195 294.45 270.142 295.477M224.641 269.988C221.947 271.707 219.404 273.286 217.003 274.727M256.142 159.489C230.968 165.331 219.351 170.902 200.985 182.989M256.142 159.489C257.778 166.831 258.633 170.037 260.142 175.489M256.142 159.489C249.642 120.989 266.642 97.4985 302.642 95.4885M381.642 152.489L407.478 149.474C410.142 149.164 412.818 149.935 414.907 151.617L432.142 165.489M381.642 152.489L407.142 172.989M381.642 152.489V158.989M432.142 165.489L407.142 172.989M432.142 165.489C440.412 172.695 441.662 194.497 442.593 238.636C442.623 240.072 441.854 241.423 440.596 242.117V242.117M407.142 172.989C411.956 206.247 412.425 224.45 413.642 256.988M381.642 158.989C395.44 166.089 399.452 169.694 401.642 175.489M381.642 158.989C370.591 154.091 365.738 150.49 356.142 150.478M413.642 256.988L400.084 248.679M413.642 256.988L440.596 242.117M398.142 247.488C403.826 218.454 406.47 202.284 401.642 175.489M398.142 247.488C391.219 268.151 382.033 277.257 353.142 287.477M398.142 247.488L400.084 248.679M356.142 150.478C358.642 124.972 338.642 93.4786 302.642 95.4885M356.142 150.478L355.142 161.982M401.642 175.489C340.048 205.254 301.543 212.495 224.085 204.489M302.642 95.4885C302.333 68.9637 302.021 60.267 297.062 38.5765M297.062 38.5765C298.906 37.6789 299.997 35.3068 299.584 32.7574M297.062 38.5765C296.737 38.7346 296.389 38.8469 296.022 38.9065M270.142 295.477C304.197 297.465 322.385 295.763 353.142 287.477M270.142 295.477L271.089 307.477M353.142 287.477V300.477M271.089 307.477V307.477C271.407 311.507 274.619 314.722 278.655 314.952C303.942 316.397 321.123 314.161 349.806 305.05C351.796 304.418 353.142 302.564 353.142 300.477V300.477M271.089 307.477C265.243 309.517 262.31 310.897 262.149 317.854M292.142 345.977C313.142 350.477 322.142 348.977 341.642 342.477M292.142 345.977C291.409 345.82 290.691 345.65 289.988 345.467M292.142 345.977C291.197 367.74 289.859 379.549 286.964 398.839C286.776 400.095 285.757 401.066 284.492 401.184V401.184M341.642 342.477C344.679 341.465 347.353 340.088 349.689 338.468M341.642 342.477C346.437 360.435 349.045 370.749 355.126 388.019M353.142 300.477C353.142 300.477 358.642 305.477 362.142 309.977C362.698 310.692 363.052 311.837 363.176 313.283M157.106 267.444C153.832 271.955 151.941 277.277 151.941 282.977C151.941 289.307 154.273 295.172 158.242 299.977M217.003 274.727C217.751 277.345 218.142 280.113 218.142 282.977C218.142 289.307 216.232 295.172 212.78 299.977M158.242 299.977C164.489 307.539 174.791 312.477 186.441 312.477C198.092 312.477 207.347 307.539 212.78 299.977M158.242 299.977C160.716 322.689 163.535 334.115 170.676 347.444C171.881 349.694 174.111 351.209 176.642 351.546V351.546M212.78 299.977C214.746 315.42 216.101 324.551 219.17 337.858C219.744 340.349 218.791 342.97 216.642 344.353V344.353M176.642 351.546C177.324 362.252 178.455 368.46 183.678 375.238C185.338 377.392 187.978 378.514 190.697 378.522C203.815 378.56 211.996 377.449 224.142 370.977C226.642 369.477 225.058 367.472 223.142 365.977M176.642 351.546C193.011 353.729 203.167 353.02 216.642 344.353M223.142 365.977C222.699 366.422 221.642 366.977 221.642 366.977M223.142 365.977C226.852 362.355 229.642 357.477 229.642 355.477C229.642 353.477 223.377 347.398 216.642 344.353M400.084 248.679C399.151 251.265 398.642 254.06 398.642 256.977C398.642 261.349 399.786 265.447 401.785 268.977M440.596 242.117C443.756 246.204 445.642 251.366 445.642 256.977C445.642 262.562 443.774 267.701 440.642 271.778M401.785 268.977C405.849 276.151 413.443 280.977 422.142 280.977C429.652 280.977 436.34 277.379 440.642 271.778M401.785 268.977C399.506 288.329 399.195 299.34 400.393 316.582C400.54 318.707 401.726 320.65 403.642 321.582V321.582M440.642 271.778C444.745 289.584 443.461 311.969 441.763 321.639C441.283 324.371 438.915 326.041 436.142 326.099V326.099M403.642 321.582C401.349 325.845 400.505 328.835 399.873 332.376C399.354 335.283 400.195 338.354 402.513 340.184C404.142 341.47 405.341 342.201 406.642 344.477V344.477C407.353 345.722 408.388 346.782 409.752 347.223C418.449 350.035 426.124 349.292 432.142 346.977C438.392 344.573 439.844 341.822 440.559 334.391C440.617 333.785 440.62 333.17 440.532 332.568C440.082 329.48 438.968 328.03 436.142 326.099M403.642 321.582C411.459 325.385 419.857 326.44 436.142 326.099M303.642 121.977C289.834 121.977 284.142 131.065 284.142 145.977C284.142 160.889 295.334 172.977 309.142 172.977C322.949 172.977 331.642 161.389 331.642 146.477C331.642 131.565 317.449 121.977 303.642 121.977ZM303.642 121.977L306.378 140.1M306.378 140.1C306.787 140.019 307.209 139.977 307.642 139.977M306.378 140.1C306.363 140.103 306.347 140.106 306.332 140.109M306.378 140.1L306.332 140.109M244.642 334.477C244.642 344.142 256.058 351.977 270.142 351.977C278.159 351.977 285.313 349.438 289.988 345.467M244.642 334.477C244.642 326.728 251.981 320.155 262.149 317.854M244.642 334.477C242.722 359.959 242.036 374.26 241.66 398.768C241.649 399.456 242.147 400.066 242.828 400.168V400.168M289.988 345.467C270.525 340.405 262.142 325.715 262.142 318.477C262.142 318.265 262.144 318.057 262.149 317.854M242.828 400.168C238.665 403.004 236.142 407.295 236.142 413.477C236.142 416.974 236.915 420.166 238.321 422.977M242.828 400.168C258.769 402.548 268.481 402.678 284.492 401.184M284.492 401.184C286.536 403.564 287.642 406.883 287.642 411.477C287.642 415.974 286.527 420.188 284.492 423.81M363.176 313.283C363.711 319.516 359.966 331.344 349.689 338.468M363.176 313.283C366.011 315.542 367.974 318.788 368.5 322.477M349.689 338.468C350.948 338.8 352.274 338.977 353.642 338.977C361.926 338.977 368.642 332.485 368.642 324.477C368.642 323.799 368.593 323.131 368.5 322.477M368.5 322.477C377.743 343.565 382.098 356.436 386.695 380.599M355.126 388.019C353.538 390.554 352.642 393.429 352.642 396.477C352.642 400.823 354.464 404.82 357.516 407.977M355.126 388.019V388.019C355.432 388.89 356.268 389.465 357.191 389.435C367.491 389.106 374.118 387.779 384.875 383.825C386.19 383.342 386.957 381.976 386.695 380.599V380.599M386.695 380.599C393.253 383.832 397.642 389.733 397.642 396.477C397.642 398.764 397.137 400.955 396.214 402.977M357.516 407.977C361.638 412.242 368.001 414.977 375.142 414.977C384.786 414.977 393.013 409.988 396.214 402.977M357.516 407.977L353.142 411.477M353.142 411.477L385.142 417.977M353.142 411.477L358.699 478.167C358.975 481.476 360.914 484.419 363.847 485.977V485.977M385.142 417.977L402.642 404.477M385.142 417.977L391.142 500.477M402.642 404.477L396.214 402.977M402.642 404.477L405.142 479.477M405.142 479.477L391.142 500.477M405.142 479.477C409.802 476.226 415.564 473.977 421.642 473.977C437.658 473.977 450.642 487.185 450.642 503.477C450.642 507.75 449.142 511.477 446.142 514.477C443.496 517.123 425.196 521.199 404.532 519.491C399.669 519.089 393.241 520.631 388.383 521.093C379.938 521.895 367.322 520.662 364.642 516.977C360.642 511.477 358.756 495.882 363.847 485.977M391.142 500.477L363.847 485.977M238.321 422.977C242.353 431.045 251.583 435.977 262.642 435.977C272.598 435.977 280.404 431.087 284.492 423.81M238.321 422.977L231.142 428.477M231.142 428.477L270.642 440.477M231.142 428.477C227.956 459.114 229.292 476.024 233.642 505.977M270.642 440.477L290.142 426.477M270.642 440.477L273.142 521.477M290.142 426.477L284.492 423.81M290.142 426.477V494.294C290.142 496.365 289.499 498.385 288.302 500.074L284.829 504.977M273.142 521.477L233.642 505.977M273.142 521.477L284.829 504.977M233.642 505.977C198.642 509.977 171.642 553.477 205.642 571.477C213.491 575.164 241.26 571.316 260.281 555.54C261.852 554.237 263.734 553.362 265.734 552.954C273.145 551.443 277.598 548.485 284.829 543.477C293.012 537.81 291.649 517.096 284.829 504.977M307.642 139.977C311.231 139.977 314.142 142.887 314.142 146.477C314.142 150.067 311.231 152.977 307.642 152.977C304.052 152.977 301.142 150.067 301.142 146.477C301.142 143.336 303.37 140.715 306.332 140.109M307.642 139.977C307.193 139.977 306.755 140.023 306.332 140.109M299.584 32.7574C300.07 35.7558 298.475 38.5089 296.022 38.9065M299.584 32.7574C299.098 29.7589 296.715 27.6505 294.262 28.0482C291.809 28.4458 290.214 31.1988 290.7 34.1972C291.186 37.1957 293.568 39.3041 296.022 38.9065" stroke="black" stroke-width="2" stroke-linecap="round" stroke-linejoin="round"/></svg>                    